<svg width="108" height="109" viewBox="0 0 108 109" fill="none" xmlns="http://www.w3.org/2000/svg">
<g opacity="0.8">
<g opacity="0.3">
<mask id="path-1-inside-1_300_251" fill="white">
<path d="M-1.08887 0.777344C13.2369 0.777344 27.4224 3.59901 40.6576 9.08124C53.8929 14.5635 65.9188 22.5989 76.0486 32.7287C86.1785 42.8586 94.2139 54.8844 99.6961 68.1197C105.178 81.355 108 95.5405 108 109.866L-1.08887 109.866V0.777344Z"/>
</mask>
<path d="M-1.08887 0.777344C13.2369 0.777344 27.4224 3.59901 40.6576 9.08124C53.8929 14.5635 65.9188 22.5989 76.0486 32.7287C86.1785 42.8586 94.2139 54.8844 99.6961 68.1197C105.178 81.355 108 95.5405 108 109.866L-1.08887 109.866V0.777344Z" fill="#0C9EB7" stroke="#0C9EB7" stroke-width="2" mask="url(#path-1-inside-1_300_251)"/>
</g>
<mask id="path-2-inside-2_300_251" fill="white">
<path d="M77.5157 109.567C77.5157 98.2322 73.0129 87.3614 64.9978 79.3463C56.9827 71.3312 46.1119 66.8283 34.7768 66.8283V109.567L77.5157 109.567Z"/>
</mask>
<path d="M77.5157 109.567C77.5157 98.2322 73.0129 87.3614 64.9978 79.3463C56.9827 71.3312 46.1119 66.8283 34.7768 66.8283V109.567L77.5157 109.567Z" fill="#0C9EB7" stroke="#0C9EB7" stroke-width="2" mask="url(#path-2-inside-2_300_251)"/>
<mask id="path-3-inside-3_300_251" fill="white">
<path d="M29.9931 170.837C35.6057 170.837 41.1633 169.731 46.3486 167.583C51.5339 165.435 56.2454 162.287 60.2141 158.319C64.1828 154.35 67.3309 149.638 69.4788 144.453C71.6266 139.268 72.7321 133.71 72.7321 128.098C72.7321 122.485 71.6266 116.927 69.4787 111.742C67.3309 106.557 64.1828 101.845 60.2141 97.8766C56.2454 93.908 51.5339 90.7598 46.3486 88.612C41.1633 86.4642 35.6057 85.3587 29.9931 85.3587L29.9931 128.098V170.837Z"/>
</mask>
<path d="M29.9931 170.837C35.6057 170.837 41.1633 169.731 46.3486 167.583C51.5339 165.435 56.2454 162.287 60.2141 158.319C64.1828 154.35 67.3309 149.638 69.4788 144.453C71.6266 139.268 72.7321 133.71 72.7321 128.098C72.7321 122.485 71.6266 116.927 69.4787 111.742C67.3309 106.557 64.1828 101.845 60.2141 97.8766C56.2454 93.908 51.5339 90.7598 46.3486 88.612C41.1633 86.4642 35.6057 85.3587 29.9931 85.3587L29.9931 128.098V170.837Z" stroke="#0C9EB7" stroke-width="10" mask="url(#path-3-inside-3_300_251)"/>
<mask id="path-4-inside-4_300_251" fill="white">
<path d="M29.9934 200.425C44.2984 200.425 58.2822 196.183 70.1763 188.236C82.0705 180.288 91.3409 168.992 96.8152 155.776C102.289 142.56 103.722 128.017 100.931 113.987C98.1403 99.957 91.2518 87.0695 81.1366 76.9544C71.0214 66.8392 58.1339 59.9507 44.1038 57.1599C30.0736 54.3691 15.531 55.8015 2.31487 61.2758C-10.9012 66.7501 -22.1972 76.0204 -30.1447 87.9146C-38.0921 99.8088 -42.334 113.793 -42.334 128.098L29.9934 128.098V200.425Z"/>
</mask>
<path d="M29.9934 200.425C44.2984 200.425 58.2822 196.183 70.1763 188.236C82.0705 180.288 91.3409 168.992 96.8152 155.776C102.289 142.56 103.722 128.017 100.931 113.987C98.1403 99.957 91.2518 87.0695 81.1366 76.9544C71.0214 66.8392 58.1339 59.9507 44.1038 57.1599C30.0736 54.3691 15.531 55.8015 2.31487 61.2758C-10.9012 66.7501 -22.1972 76.0204 -30.1447 87.9146C-38.0921 99.8088 -42.334 113.793 -42.334 128.098L29.9934 128.098V200.425Z" stroke="#0C9EB7" stroke-width="6" mask="url(#path-4-inside-4_300_251)"/>
</g>
</svg>
