<svg width="204" height="140" viewBox="0 0 204 140" fill="none" xmlns="http://www.w3.org/2000/svg">
<rect x="0.5" y="0.5" width="203" height="139" rx="8.5" fill="#F7F7F7" stroke="#D8D8D8" stroke-dasharray="2 2"/>
<g opacity="0.6">
<path d="M114.5 58.927H110.169L108.039 55.7333C107.925 55.5622 107.77 55.422 107.589 55.325C107.408 55.228 107.206 55.1771 107 55.177H97C96.7944 55.1771 96.592 55.228 96.4108 55.325C96.2296 55.422 96.075 55.5622 95.9609 55.7333L93.8297 58.927H89.5C88.5054 58.927 87.5516 59.3221 86.8483 60.0254C86.1451 60.7286 85.75 61.6824 85.75 62.677V80.177C85.75 81.1716 86.1451 82.1254 86.8483 82.8287C87.5516 83.5319 88.5054 83.927 89.5 83.927H114.5C115.495 83.927 116.448 83.5319 117.152 82.8287C117.855 82.1254 118.25 81.1716 118.25 80.177V62.677C118.25 61.6824 117.855 60.7286 117.152 60.0254C116.448 59.3221 115.495 58.927 114.5 58.927ZM107.625 70.802C107.625 71.9145 107.295 73.0021 106.677 73.9271C106.059 74.8521 105.18 75.5731 104.153 75.9988C103.125 76.4246 101.994 76.536 100.903 76.3189C99.8115 76.1019 98.8092 75.5661 98.0225 74.7795C97.2359 73.9928 96.7001 72.9905 96.4831 71.8994C96.266 70.8082 96.3774 69.6772 96.8032 68.6494C97.2289 67.6216 97.9499 66.7431 98.8749 66.125C99.7999 65.5069 100.887 65.177 102 65.177C103.492 65.177 104.923 65.7696 105.977 66.8245C107.032 67.8794 107.625 69.3102 107.625 70.802Z" fill="#C1C7D0"/>
</g>
</svg>
