<svg width="375" height="225" viewBox="0 0 375 225" fill="none" xmlns="http://www.w3.org/2000/svg">
<rect y="1.49414" width="374.999" height="121.45" fill="#D9D9D9"/>
<rect y="0.541992" width="374.999" height="221.472" fill="#AB348E"/>
<path d="M0 0.541992H324.587L259.839 222.014H0V0.541992Z" fill="#0C9EB7"/>
<path d="M389.716 224.681V133.06L369.71 149.397C360.821 156.676 360.821 168.477 369.71 175.756L370.194 176.138C371.404 177.127 371.404 178.736 370.194 179.738C368.968 180.727 367 180.727 365.79 179.738L338.976 157.823C334.765 154.381 327.925 154.381 323.714 157.823C319.487 161.264 319.487 166.855 323.714 170.297L362.402 201.93C363.547 202.853 363.547 204.356 362.402 205.292C361.273 206.215 359.433 206.215 358.288 205.292L332.168 183.931C324.698 177.839 312.614 177.839 305.161 183.931C297.691 190.023 297.691 199.912 305.161 206.004L322.246 219.968L311.905 221.128L264.956 182.757C259.616 178.38 250.937 178.38 245.58 182.757C240.24 187.135 240.24 194.229 245.58 198.594C248.113 200.664 259.342 209.841 260.972 211.173C262.02 212.03 262.02 213.428 260.955 214.298L260.907 214.338C259.891 215.168 258.229 215.168 257.212 214.338L252.356 210.369C246.5 205.582 236.981 205.582 231.109 210.369L221.489 224.681" fill="#F3FFFD" fill-opacity="0.2"/>
<g opacity="0.5">
<path fill-rule="evenodd" clip-rule="evenodd" d="M-0.000488281 134.479C0.734396 134.377 1.48624 134.324 2.25104 134.324C10.6484 134.324 17.4587 140.713 17.4587 148.559V222.014H17.7052V148.559C17.7052 140.583 10.7716 134.093 2.25104 134.093C1.48646 134.093 0.734667 134.145 -0.000488281 134.246V134.479Z" fill="white"/>
<path fill-rule="evenodd" clip-rule="evenodd" d="M2.24854 138.045C1.47938 138.045 0.728039 138.118 0.00195312 138.256V138.021C0.728612 137.885 1.47983 137.814 2.24854 137.814C8.58121 137.814 13.7275 142.632 13.7275 148.559V222.014H13.4964V148.559C13.4964 142.761 8.44254 138.045 2.24854 138.045Z" fill="white"/>
<path fill-rule="evenodd" clip-rule="evenodd" d="M0.00634766 130.725C0.74401 130.645 1.49439 130.603 2.25503 130.603C12.8403 130.603 21.4379 138.651 21.4379 148.559V222.014H21.6845V148.559C21.6845 138.536 12.9636 130.387 2.25503 130.387C1.49457 130.387 0.744206 130.428 0.00634766 130.508V130.725Z" fill="white"/>
<path fill-rule="evenodd" clip-rule="evenodd" d="M0.00146484 126.983C0.741172 126.916 1.49097 126.881 2.24918 126.881C15.0224 126.881 25.4073 136.602 25.4073 148.559V222.014H25.6385V148.559C25.6385 136.487 15.1456 126.665 2.24918 126.665C1.49109 126.665 0.741301 126.699 0.00146484 126.765V126.983Z" fill="white"/>
<path fill-rule="evenodd" clip-rule="evenodd" d="M0 123.247C0.742649 123.19 1.49368 123.161 2.25188 123.161C17.213 123.161 29.3853 134.555 29.3853 148.559V222.014H29.6164V148.559C29.6164 134.439 17.3517 122.944 2.25188 122.944C1.49377 122.944 0.742741 122.973 0 123.03V123.247Z" fill="white"/>
</g>
</svg>
