<svg width="1440" height="328" viewBox="0 0 1440 328" fill="none" xmlns="http://www.w3.org/2000/svg">
<rect width="1440" height="327.787" fill="#D9D9D9"/>
<rect width="1440" height="327.787" fill="#AB348E"/>
<path d="M0 0H1254.67L1004.39 327.787H0V0Z" fill="#0C9EB7"/>
<path d="M1440 327.787V186.082L1406.95 211.35C1392.27 222.607 1392.27 240.86 1406.95 252.117L1407.75 252.709C1409.75 254.238 1409.75 256.726 1407.75 258.276C1405.73 259.806 1402.48 259.806 1400.48 258.276L1356.19 224.382C1349.23 219.059 1337.93 219.059 1330.98 224.382C1323.99 229.704 1323.99 238.352 1330.98 243.674L1394.88 292.599C1396.77 294.027 1396.77 296.352 1394.88 297.8C1393.02 299.227 1389.98 299.227 1388.09 297.8L1344.94 264.762C1332.6 255.34 1312.64 255.34 1300.33 264.762C1287.99 274.184 1287.99 289.479 1300.33 298.901L1328.55 320.498L1311.47 322.293L1233.92 262.947C1225.1 256.176 1210.76 256.176 1201.91 262.947C1193.09 269.717 1193.09 280.689 1201.91 287.44C1206.1 290.642 1224.65 304.836 1227.34 306.896C1229.07 308.221 1229.07 310.383 1227.31 311.729L1227.23 311.79C1225.55 313.075 1222.81 313.075 1221.13 311.79L1213.11 305.652C1203.43 298.249 1187.71 298.249 1178.01 305.652L1162.12 327.787" fill="#F3FFFD" fill-opacity="0.2"/>
<g opacity="0.5">
<path fill-rule="evenodd" clip-rule="evenodd" d="M0.000244141 134.563C2.05818 134.337 4.16356 134.22 6.30519 134.22C29.8408 134.22 48.9284 148.329 48.9284 165.656V327.868H49.6193V165.656C49.6193 148.042 30.1863 133.71 6.30519 133.71C4.16419 133.71 2.05894 133.825 0.000244141 134.048V134.563Z" fill="white"/>
<path fill-rule="evenodd" clip-rule="evenodd" d="M6.30567 142.436C4.14689 142.436 2.03818 142.597 0.000488281 142.904V142.384C2.03979 142.084 4.14817 141.927 6.30567 141.927C24.0545 141.927 38.4782 152.565 38.4782 165.655V327.867H37.8304V165.655C37.8304 152.851 23.6659 142.436 6.30567 142.436Z" fill="white"/>
<path fill-rule="evenodd" clip-rule="evenodd" d="M0.000244141 126.273C2.06844 126.094 4.1723 126.002 6.30494 126.002C35.9728 126.002 60.0697 143.774 60.0697 165.655V327.868H60.7607V165.655C60.7607 143.52 36.3182 125.524 6.30494 125.524C4.1728 125.524 2.06899 125.615 0.000244141 125.792V126.273Z" fill="white"/>
<path fill-rule="evenodd" clip-rule="evenodd" d="M0 118.009C2.07475 117.861 4.17781 117.785 6.3045 117.785C42.1045 117.785 71.2109 139.252 71.2109 165.656V327.868H71.8587V165.656C71.8587 138.997 42.45 117.308 6.3045 117.308C4.17815 117.308 2.07511 117.383 0 117.529V118.009Z" fill="white"/>
<path fill-rule="evenodd" clip-rule="evenodd" d="M0.000244141 109.758C2.07932 109.632 4.18184 109.568 6.30439 109.568C48.2366 109.568 82.3524 134.729 82.3524 165.656V327.868H83.0002V165.656C83.0002 134.474 48.6253 109.09 6.30439 109.09C4.18208 109.09 2.07958 109.154 0.000244141 109.279V109.758Z" fill="white"/>
</g>
</svg>
