<svg width="1440" height="564" viewBox="0 0 1440 564" fill="none" xmlns="http://www.w3.org/2000/svg">
<g clip-path="url(#clip0_304_679)">
<path d="M2230.29 -306C2230.29 -191.75 2191.21 -78.6187 2115.3 26.9346C2039.38 132.488 1928.11 228.396 1787.83 309.183C1647.55 389.97 1481.02 454.054 1297.74 497.775C1114.46 541.497 918.025 564 719.644 564C521.264 564 324.825 541.497 141.546 497.775C-41.7341 454.054 -208.266 389.97 -348.543 309.183C-488.819 228.396 -600.092 132.488 -676.009 26.9346C-751.926 -78.6188 -791 -191.75 -791 -306L719.644 -306H2230.29Z" fill="#AB348E"/>
<path d="M-196.954 -357.716L108.355 532.16L91.6305 524.935L63.9987 510.485L27.6411 491.219L-229.769 -108.454L-196.954 -357.716Z" fill="white" fill-opacity="0.03"/>
<path d="M11.0579 -329.543L231.173 626.822L215.306 615.473L189.321 594.238L155.153 566.047L-53.0745 -114.474L11.0579 -329.543Z" fill="white" fill-opacity="0.03"/>
<path d="M193.574 -326.119L319.871 675.759L305.283 660.408L281.645 632.654L250.589 595.894L116.289 -105.428L193.574 -326.119Z" fill="white" fill-opacity="0.03"/>
<path d="M377.303 -294.355L425.842 725.959L412.548 707.668L391.226 675.172L363.237 632.186L275.6 -157.824L377.303 -294.355Z" fill="white" fill-opacity="0.03"/>
<path d="M528.91 -297.131L497.507 705.243L478.469 669.067L447.023 638.859L418.77 -179.916L528.91 -297.131Z" fill="white" fill-opacity="0.03"/>
<path d="M664.171 -287.497L621.723 661.005L567.914 661.005L554.031 -170.283L664.171 -287.497Z" fill="white" fill-opacity="0.03"/>
<path d="M794.9 -297.131L738.069 663.414L688.623 663.414L684.76 -179.916L794.9 -297.131Z" fill="white" fill-opacity="0.03"/>
<path d="M914.166 -302.837L890.004 666.139L829.885 652.906L807.32 -177.542L914.166 -302.837Z" fill="white" fill-opacity="0.03"/>
<path d="M1070.54 -294.464L991.539 666.474L932.436 643.951L942.514 -186.337L1070.54 -294.464Z" fill="white" fill-opacity="0.03"/>
<path d="M1228.17 -274.629L1094.97 645.969L1051.9 638.714L1107.57 -186.609L1228.17 -274.629Z" fill="white" fill-opacity="0.03"/>
<path d="M1406.16 -227.787L1183.62 650.187L1141.58 633.006L1266.56 -171.248L1406.16 -227.787Z" fill="white" fill-opacity="0.03"/>
<path d="M1578.41 -188.295L1286.44 631.993L1246.18 605.585L1412.87 -148.189L1578.41 -188.295Z" fill="white" fill-opacity="0.03"/>
<path d="M1774.94 -226.1L1449.2 558.542L1410.15 527.558L1608.11 -205.174L1774.94 -226.1Z" fill="white" fill-opacity="0.03"/>
</g>
<defs>
<clipPath id="clip0_304_679">
<rect width="3021.29" height="1740" fill="white" transform="translate(-791 -1176)"/>
</clipPath>
</defs>
</svg>
