<svg width="48" height="49" viewBox="0 0 48 49" fill="none" xmlns="http://www.w3.org/2000/svg">
<path d="M34.1647 24.465L41.1819 41.7572L34.1788 38.5218L31.4319 45.7312L24.8984 29.7009C24.9851 29.7512 25.067 29.8093 25.1431 29.8743L25.6719 30.3243C25.8809 30.502 26.1284 30.6285 26.3948 30.6938C26.6612 30.759 26.9391 30.7613 27.2065 30.7005C27.474 30.6396 27.7235 30.5172 27.9354 30.3431C28.1473 30.1689 28.3157 29.9477 28.4272 29.6972L28.7103 29.0587C28.8804 28.6762 29.181 28.3666 29.5582 28.1851C29.9355 28.0036 30.3649 27.962 30.77 28.0678L31.4403 28.244C31.7058 28.3134 31.9838 28.32 32.2522 28.2632C32.5206 28.2064 32.7721 28.0877 32.9867 27.9168C33.2013 27.7458 33.373 27.5271 33.4883 27.2781C33.6036 27.0291 33.6593 26.7567 33.6509 26.4825L33.6284 25.7868C33.6208 25.5413 33.6645 25.2969 33.7569 25.0692C33.8492 24.8416 33.9881 24.6358 34.1647 24.465Z" fill="#0C9EB7"/>
<path d="M37.7068 15.2362C37.926 15.4003 38.1039 15.6132 38.2266 15.8581C38.3492 16.1029 38.4131 16.3729 38.4133 16.6467C38.4135 16.9205 38.3499 17.1906 38.2276 17.4356C38.1053 17.6806 37.9276 17.8937 37.7087 18.0581L37.1434 18.4828C36.8095 18.7336 36.5755 19.0947 36.4828 19.5019C36.3901 19.9091 36.4448 20.3359 36.6371 20.7065L36.9587 21.3244C37.0851 21.5678 37.1529 21.8374 37.1569 22.1117C37.1608 22.386 37.1007 22.6574 36.9814 22.9044C36.8621 23.1514 36.6868 23.3671 36.4695 23.5345C36.2522 23.702 35.9989 23.8164 35.7296 23.8687L35.0546 24C34.6435 24.0802 34.2743 24.3039 34.0129 24.6313C33.7515 24.9586 33.615 25.3682 33.6278 25.7869L33.6502 26.4825C33.6586 26.7567 33.603 27.0292 33.4877 27.2781C33.3724 27.5271 33.2006 27.7458 32.986 27.9168C32.7714 28.0878 32.5199 28.2064 32.2515 28.2632C31.9831 28.32 31.7051 28.3134 31.4396 28.244L30.7693 28.0678C30.3642 27.962 29.9348 28.0036 29.5575 28.1851C29.1803 28.3666 28.8798 28.6762 28.7096 29.0587L28.4265 29.6972C28.315 29.9478 28.1466 30.1689 27.9347 30.3431C27.7228 30.5172 27.4733 30.6396 27.2058 30.7005C26.9384 30.7614 26.6605 30.7591 26.3941 30.6938C26.1277 30.6285 25.8802 30.502 25.6712 30.3244L25.1424 29.8744C25.0663 29.8093 24.9844 29.7512 24.8977 29.7009V29.7C24.6259 29.5389 24.3157 29.4539 23.9996 29.4539C23.6836 29.4539 23.3734 29.5389 23.1015 29.7V29.7009C23.0149 29.7512 22.933 29.8093 22.8568 29.8744L22.3281 30.3244C22.1191 30.502 21.8716 30.6285 21.6052 30.6938C21.3388 30.7591 21.0608 30.7614 20.7934 30.7005C20.526 30.6396 20.2764 30.5172 20.0645 30.3431C19.8526 30.1689 19.6843 29.9478 19.5728 29.6972L19.2896 29.0587C19.1195 28.6762 18.819 28.3666 18.4417 28.1851C18.0645 28.0036 17.635 27.962 17.2299 28.0678L16.5596 28.244C16.2942 28.3134 16.0162 28.32 15.7478 28.2632C15.4793 28.2064 15.2278 28.0878 15.0132 27.9168C14.7987 27.7458 14.6269 27.5271 14.5116 27.2781C14.3963 27.0292 14.3406 26.7567 14.349 26.4825L14.3715 25.7869C14.3841 25.3682 14.2476 24.9587 13.9862 24.6314C13.7249 24.3041 13.3557 24.0803 12.9446 24L12.2696 23.8687C12.0004 23.8164 11.747 23.702 11.5297 23.5345C11.3124 23.3671 11.1371 23.1514 11.0178 22.9044C10.8985 22.6574 10.8384 22.386 10.8424 22.1117C10.8463 21.8374 10.9142 21.5678 11.0406 21.3244L11.3621 20.7065C11.5545 20.3359 11.6092 19.9091 11.5165 19.5019C11.4238 19.0947 11.1897 18.7336 10.8559 18.4828L10.2906 18.0581C10.0716 17.8937 9.89394 17.6806 9.77164 17.4356C9.64933 17.1906 9.58576 16.9205 9.58594 16.6467C9.58612 16.3729 9.65006 16.1029 9.77268 15.8581C9.89531 15.6132 10.0733 15.4003 10.2924 15.2362L10.8531 14.8162C11.1876 14.5655 11.4223 14.2042 11.5154 13.7966C11.6084 13.389 11.5538 12.9617 11.3612 12.5906L11.0406 11.9747C10.9142 11.7312 10.8463 11.4616 10.8424 11.1873C10.8384 10.9131 10.8985 10.6416 11.0178 10.3946C11.1371 10.1476 11.3124 9.93187 11.5297 9.76447C11.747 9.59706 12.0004 9.48264 12.2696 9.43029L12.9446 9.29904C13.3557 9.21877 13.7249 8.995 13.9863 8.66769C14.2476 8.34038 14.3842 7.93083 14.3715 7.51216L14.349 6.81748C14.3405 6.54318 14.396 6.27067 14.5113 6.02161C14.6265 5.77256 14.7983 5.55382 15.0129 5.3828C15.2276 5.21177 15.4791 5.09317 15.7476 5.03643C16.0161 4.97968 16.2942 4.98635 16.5596 5.05591L17.2299 5.23123C17.6349 5.33698 18.0642 5.2955 18.4415 5.11419C18.8187 4.93288 19.1193 4.62351 19.2896 4.24123L19.5728 3.60279C19.6841 3.35204 19.8524 3.13073 20.0643 2.95644C20.2761 2.78215 20.5257 2.65969 20.7933 2.5988C21.0608 2.53791 21.3388 2.54026 21.6052 2.60567C21.8717 2.67108 22.1192 2.79775 22.3281 2.9756L22.8568 3.42466C23.1757 3.69609 23.5808 3.84514 23.9996 3.84514C24.4184 3.84514 24.8235 3.69609 25.1424 3.42466L25.6712 2.9756C25.8801 2.79775 26.1276 2.67108 26.394 2.60567C26.6605 2.54026 26.9385 2.53791 27.206 2.5988C27.4735 2.65969 27.7231 2.78215 27.935 2.95644C28.1469 3.13073 28.3152 3.35204 28.4265 3.60279L28.7096 4.24123C28.88 4.62351 29.1806 4.93288 29.5578 5.11419C29.935 5.2955 30.3644 5.33698 30.7693 5.23123L31.4396 5.05591C31.7051 4.98635 31.9831 4.97968 32.2516 5.03643C32.5201 5.09317 32.7717 5.21177 32.9863 5.3828C33.2009 5.55382 33.3727 5.77256 33.488 6.02161C33.6032 6.27067 33.6588 6.54318 33.6502 6.81748L33.6278 7.51216C33.6151 7.93083 33.7516 8.34038 34.013 8.66769C34.2743 8.995 34.6435 9.21877 35.0546 9.29904L35.7296 9.43029C35.9989 9.48264 36.2522 9.59706 36.4695 9.76447C36.6868 9.93187 36.8621 10.1476 36.9814 10.3946C37.1007 10.6416 37.1608 10.9131 37.1569 11.1873C37.1529 11.4616 37.0851 11.7312 36.9587 11.9747L36.6381 12.5906C36.4455 12.9617 36.3908 13.389 36.4839 13.7966C36.5769 14.2042 36.8116 14.5655 37.1462 14.8162L37.7068 15.2362ZM32.7437 16.65C32.7439 14.9205 32.2312 13.2299 31.2705 11.7918C30.3098 10.3537 28.9442 9.23281 27.3465 8.57085C25.7487 7.90889 23.9906 7.73559 22.2943 8.07288C20.5981 8.41016 19.0399 9.24288 17.817 10.4657C16.594 11.6886 15.7611 13.2466 15.4236 14.9428C15.0862 16.639 15.2593 18.3972 15.9211 19.995C16.5829 21.5929 17.7036 22.9585 19.1416 23.9194C20.5796 24.8802 22.2702 25.3931 23.9996 25.3931C26.3185 25.3931 28.5424 24.4719 30.1822 22.8323C31.822 21.1927 32.7434 18.9689 32.7437 16.65Z" fill="#AB348E"/>
<path d="M23.9999 7.90588C25.7292 7.90598 27.4196 8.41885 28.8574 9.37964C30.2952 10.3404 31.4158 11.706 32.0776 13.3037C32.7393 14.9013 32.9124 16.6593 32.575 18.3554C32.2376 20.0514 31.4049 21.6093 30.1821 22.8321C28.9593 24.0549 27.4014 24.8877 25.7054 25.225C24.0093 25.5624 22.2513 25.3893 20.6536 24.7276C19.056 24.0659 17.6904 22.9453 16.7296 21.5074C15.7688 20.0696 15.256 18.3792 15.2559 16.6499C15.2559 14.3309 16.1772 12.1068 17.817 10.467C19.4568 8.8272 21.6809 7.90593 23.9999 7.90588ZM27.5146 16.6499C27.5146 15.9548 27.3085 15.2753 26.9223 14.6973C26.5361 14.1193 25.9872 13.6688 25.3449 13.4028C24.7027 13.1368 23.996 13.0672 23.3142 13.2028C22.6325 13.3384 22.0062 13.6731 21.5147 14.1647C21.0231 14.6562 20.6884 15.2825 20.5528 15.9643C20.4172 16.646 20.4868 17.3527 20.7528 17.995C21.0188 18.6372 21.4693 19.1861 22.0473 19.5723C22.6253 19.9585 23.3048 20.1646 23.9999 20.1646C24.9321 20.1646 25.826 19.7943 26.4851 19.1352C27.1442 18.476 27.5146 17.5821 27.5146 16.6499Z" fill="white"/>
<path d="M24 13.1343C24.6954 13.1341 25.3752 13.3401 25.9535 13.7263C26.5317 14.1125 26.9825 14.6615 27.2487 15.3039C27.515 15.9463 27.5847 16.6532 27.4492 17.3352C27.3136 18.0172 26.9789 18.6437 26.4872 19.1355C25.9956 19.6273 25.3692 19.9622 24.6872 20.0979C24.0052 20.2336 23.2983 20.1641 22.6558 19.898C22.0134 19.6319 21.4642 19.1813 21.0779 18.6032C20.6916 18.025 20.4854 17.3453 20.4854 16.6499C20.4853 16.1883 20.5761 15.7311 20.7527 15.3046C20.9293 14.8781 21.1881 14.4906 21.5145 14.1641C21.8409 13.8376 22.2284 13.5787 22.6548 13.402C23.0813 13.2253 23.5384 13.1343 24 13.1343Z" fill="#AB348E"/>
<path d="M23.1018 29.7009L16.5684 45.7312L13.8215 38.5218L6.81836 41.7571L13.844 24.4734C14.0178 24.6441 14.1544 24.8489 14.2452 25.0749C14.336 25.301 14.3791 25.5433 14.3718 25.7868L14.3493 26.4825C14.3409 26.7567 14.3966 27.0291 14.5119 27.2781C14.6272 27.5271 14.799 27.7457 15.0135 27.9167C15.2281 28.0877 15.4796 28.2063 15.748 28.2632C16.0165 28.32 16.2945 28.3134 16.5599 28.244L17.2302 28.0678C17.6353 27.962 18.0648 28.0035 18.442 28.185C18.8193 28.3666 19.1198 28.6762 19.2899 29.0587L19.573 29.6971C19.6845 29.9477 19.8529 30.1689 20.0648 30.343C20.2767 30.5172 20.5263 30.6396 20.7937 30.7005C21.0611 30.7613 21.3391 30.759 21.6055 30.6937C21.8719 30.6285 22.1194 30.502 22.3284 30.3243L22.8571 29.8743C22.9333 29.8092 23.0152 29.7512 23.1018 29.7009Z" fill="#0C9EB7"/>
</svg>
