<svg width="48" height="49" viewBox="0 0 48 49" fill="none" xmlns="http://www.w3.org/2000/svg">
<path d="M19.3223 20.3362H23.8223C31.5848 20.3362 37.8754 26.6268 37.8754 34.3893V39.4424C37.8754 40.9331 36.666 42.1424 35.1754 42.1424H7.95977C6.46914 42.1424 5.25977 40.9331 5.25977 39.4424V34.3893C5.27852 26.6268 11.5691 20.3362 19.3223 20.3362Z" fill="#AB348E"/>
<path d="M21.5723 19.0519C25.8335 19.0519 29.2879 15.4925 29.2879 11.1019C29.2879 6.71119 25.8335 3.15186 21.5723 3.15186C17.3111 3.15186 13.8567 6.71119 13.8567 11.1019C13.8567 15.4925 17.3111 19.0519 21.5723 19.0519Z" fill="#F4BF90"/>
<path d="M36.9096 46.958C41.6954 46.958 45.5751 43.0784 45.5751 38.2926C45.5751 33.5067 41.6954 29.6271 36.9096 29.6271C32.1238 29.6271 28.2441 33.5067 28.2441 38.2926C28.2441 43.0784 32.1238 46.958 36.9096 46.958Z" fill="#0C9EB7"/>
<path d="M42.446 36.2896L40.5544 34.1198L35.5888 38.4873L33.4189 36.0114L31.3604 37.8057L35.4358 42.4514L42.446 36.2896Z" fill="#1A1A1A"/>
</svg>
