<svg width="29" height="24" viewBox="0 0 29 24" fill="none" xmlns="http://www.w3.org/2000/svg">
<path d="M19.5707 4.64533C19.5705 5.41897 19.2646 6.16118 18.7195 6.71019C17.4647 7.97533 16.2471 9.29448 14.9447 10.5133C14.7993 10.6458 14.6086 10.7174 14.4119 10.7133C14.2152 10.7093 14.0276 10.6298 13.8878 10.4915L10.1361 6.71148C9.59044 6.16228 9.28418 5.41952 9.28418 4.64533C9.28418 3.87114 9.59044 3.12838 10.1361 2.57919C10.4082 2.30505 10.7319 2.08748 11.0885 1.939C11.4451 1.79053 11.8276 1.71409 12.2138 1.71409C12.6001 1.71409 12.9825 1.79053 13.3391 1.939C13.6957 2.08748 14.0194 2.30505 14.2915 2.57919L14.4278 2.71676L14.5641 2.57919C14.9726 2.1663 15.4947 1.8843 16.0639 1.76909C16.6332 1.65388 17.2238 1.71067 17.7607 1.93223C18.2976 2.15379 18.7564 2.5301 19.0787 3.01325C19.401 3.4964 19.5723 4.06454 19.5707 4.64533Z" stroke="#AB348E" stroke-width="1.99541" stroke-linejoin="round"/>
<path d="M22.1416 22.2854L27.0582 17.3689C27.2029 17.2243 27.2843 17.0282 27.2845 16.8237V10.0711C27.2845 9.55966 27.0813 9.06912 26.7196 8.70744C26.3579 8.34577 25.8674 8.14258 25.3559 8.14258C24.8444 8.14258 24.3539 8.34577 23.9922 8.70744C23.6305 9.06912 23.4273 9.55966 23.4273 10.0711V15.8569" stroke="#AB348E" stroke-width="1.99541" stroke-linecap="round" stroke-linejoin="round"/>
<path d="M22.1408 17.1426L23.2439 16.0394C23.3021 15.9817 23.3482 15.913 23.3796 15.8373C23.4109 15.7616 23.4269 15.6804 23.4265 15.5984C23.4256 15.483 23.393 15.37 23.3322 15.2718C23.2714 15.1736 23.1848 15.094 23.0819 15.0417L22.5123 14.7576C22.0298 14.5163 21.4836 14.4329 20.951 14.5192C20.4185 14.6055 19.9266 14.8571 19.5449 15.2384L18.3942 16.3891C17.9119 16.8713 17.6409 17.5252 17.6408 18.2071V22.2854M6.71219 22.2854L1.79562 17.3689C1.65091 17.2243 1.56952 17.0282 1.56934 16.8237V10.0711C1.56934 9.55966 1.77252 9.06912 2.1342 8.70744C2.49588 8.34577 2.98642 8.14258 3.49791 8.14258C4.0094 8.14258 4.49994 8.34577 4.86161 8.70744C5.22329 9.06912 5.42648 9.55966 5.42648 10.0711V15.8569" stroke="#AB348E" stroke-width="1.99541" stroke-linecap="round" stroke-linejoin="round"/>
<path d="M6.71247 17.1428L5.60933 16.0397C5.49413 15.9215 5.42877 15.7636 5.42676 15.5987C5.42676 15.3634 5.56047 15.1487 5.77133 15.0419L6.3409 14.7578C6.82344 14.5165 7.36965 14.4331 7.9022 14.5194C8.43475 14.6057 8.92667 14.8574 9.30833 15.2387L10.459 16.3894C10.9413 16.8715 11.2123 17.5254 11.2125 18.2074V22.2857" stroke="#AB348E" stroke-width="1.99541" stroke-linecap="round" stroke-linejoin="round"/>
</svg>
