<svg width="19" height="18" viewBox="0 0 19 18" fill="none" xmlns="http://www.w3.org/2000/svg">
<path d="M0.662109 9C0.662109 4.02891 4.69102 0 9.66211 0C14.6332 0 18.6621 4.02891 18.6621 9C18.6621 13.9711 14.6332 18 9.66211 18C4.69102 18 0.662109 13.9711 0.662109 9ZM13.7332 7.44609C14.1164 7.06289 14.1164 6.43711 13.7332 6.05391C13.35 5.6707 12.7242 5.6707 12.341 6.05391L8.53711 9.85781L6.9832 8.30391C6.6 7.9207 5.97422 7.9207 5.59102 8.30391C5.20781 8.68711 5.20781 9.31289 5.59102 9.69609L7.84102 11.9461C8.22422 12.3293 8.85 12.3293 9.2332 11.9461L13.7332 7.44609Z" fill="#0C9EB7"/>
</svg>
