<svg width="48" height="49" viewBox="0 0 48 49" fill="none" xmlns="http://www.w3.org/2000/svg">
<g clip-path="url(#clip0_402_776)">
<path d="M18.15 30.8925L9.75 33.7425C6.6 34.6425 4.5 37.6425 4.5 40.7925V47.3925H42V40.7925C42 37.4925 39.9 34.6425 36.9 33.7425L28.5 30.8925" fill="#AB348E"/>
<path d="M18 26.3925V30.1425C18 32.9925 23.25 35.3925 23.25 35.3925C23.25 35.3925 28.5 32.9925 28.5 30.1425V26.3925" fill="#FED8AA"/>
<path d="M23.25 36.1424L22.95 35.9924C22.35 35.6924 17.25 33.2924 17.25 29.9924V26.2424H18.75V30.1424C18.75 31.9424 21.75 33.8924 23.25 34.4924C24.75 33.7424 27.75 31.9424 27.75 30.1424V26.3924H29.25V30.1424C29.25 33.4424 24.15 35.8424 23.55 36.1424H23.25Z" fill="#40455A"/>
<path d="M33 8.39246V18.1425C33 23.5425 28.65 27.8925 23.25 27.8925C17.85 27.8925 13.5 23.5425 13.5 18.1425V8.39246" fill="#FED8AA"/>
<path d="M23.25 28.6425C17.4 28.6425 12.75 23.9925 12.75 18.1425V8.39246H14.25V18.1425C14.25 23.0925 18.3 27.1425 23.25 27.1425C28.2 27.1425 32.25 23.0925 32.25 18.1425V8.39246H33.75V18.1425C33.75 23.9925 29.1 28.6425 23.25 28.6425Z" fill="#40455A"/>
<path d="M13.5001 14.3925H14.2501C15.1501 14.3925 15.7501 13.7925 15.7501 12.8925C15.7501 11.9925 16.3501 11.3925 17.2501 11.3925L18.9001 11.6925C22.6501 12.4425 26.5501 11.5425 29.5501 9.29249C30.0001 8.99249 30.7501 9.29249 30.7501 9.89249V12.8925C30.7501 13.7925 31.3501 14.3925 32.2501 14.3925H33.0001L34.5001 9.59249C34.9501 7.34249 33.3001 5.24249 31.0501 5.24249C31.0501 2.54249 28.6501 0.592494 26.1001 1.04249L15.7501 2.69249C13.2001 3.14249 11.7001 5.39249 12.0001 7.79249L13.5001 14.3925Z" fill="#A17852"/>
<path d="M33.5996 15.1425H32.2496C31.0496 15.1425 29.9996 14.0925 29.9996 12.8925V9.89248C26.8496 12.2925 22.6496 13.1925 18.7496 12.4425L17.0996 12.1425C16.7996 12.1425 16.4996 12.4425 16.4996 12.8925C16.4996 14.0925 15.4496 15.1425 14.2496 15.1425H12.8996L11.3996 7.94248C11.0996 6.59248 11.3996 5.24248 12.2996 4.04248C13.0496 2.84248 14.2496 2.09248 15.5996 1.94248L25.7996 0.142483C27.2996 -0.157517 28.7996 0.292483 29.8496 1.19248C30.8996 2.24248 31.4996 3.29248 31.6496 4.64248C32.6996 4.79248 33.5996 5.39248 34.1996 6.14248C34.9496 7.19248 35.3996 8.39248 35.0996 9.74248L33.5996 15.1425ZM29.9996 8.39248C30.2996 8.39248 30.4496 8.39248 30.5996 8.54248C31.1996 8.84248 31.4996 9.29248 31.4996 9.89248V12.8925C31.4996 13.3425 31.7996 13.6425 32.2496 13.6425H32.3996L33.7496 9.29248C33.8996 8.54248 33.7496 7.64248 33.1496 7.04248C32.5496 6.44248 31.7996 5.99248 31.0496 5.99248H30.2996V5.24248C30.2996 4.04248 29.8496 3.14248 29.0996 2.39248C28.3496 1.79248 27.2996 1.49248 26.2496 1.64248L15.8996 3.29248C14.9996 3.44248 14.0996 4.04248 13.4996 4.79248C12.8996 5.69248 12.5996 6.74248 12.7496 7.64248L13.9496 13.6425H14.0996C14.6996 13.6425 14.9996 13.3425 14.9996 12.8925C14.9996 11.6925 16.0496 10.6425 17.2496 10.6425L19.0496 10.9425C22.4996 11.6925 26.2496 10.7925 29.0996 8.69248C29.3996 8.54248 29.6996 8.39248 29.9996 8.39248Z" fill="#40455A"/>
<path opacity="0.4" d="M42 47.3925V40.7925C42 39.4425 41.55 38.0925 40.95 36.8925C36.45 37.4925 33 41.2425 33 45.8925V47.3925H42ZM4.5 47.3925V40.7925C4.5 39.4425 4.95 38.0925 5.55 36.8925C10.05 37.4925 13.5 41.2425 13.5 45.8925V47.3925H4.5Z" fill="#AB348E"/>
<path d="M36 18.8925H33V14.3925H34.5C35.4 14.3925 36 14.9925 36 15.8925V18.8925Z" fill="#787882"/>
<path d="M36.75 19.6425H32.25V13.6425H34.5C35.7 13.6425 36.75 14.6925 36.75 15.8925V19.6425ZM33.75 18.1425H35.25V15.8925C35.25 15.4425 34.95 15.1425 34.5 15.1425H33.75V18.1425Z" fill="#40455A"/>
<path d="M13.5 18.8925H12C11.1 18.8925 10.5 18.2925 10.5 17.3925V15.8925C10.5 14.9925 11.1 14.3925 12 14.3925H13.5V18.8925Z" fill="#787882"/>
<path d="M14.25 19.6425H12C10.8 19.6425 9.75 18.5925 9.75 17.3925V15.8925C9.75 14.6925 10.8 13.6425 12 13.6425H14.25V19.6425ZM12 15.1425C11.55 15.1425 11.25 15.4425 11.25 15.8925V17.3925C11.25 17.8425 11.55 18.1425 12 18.1425H12.75V15.1425H12Z" fill="#40455A"/>
<path d="M25.5 24.8925H24C23.1 24.8925 22.5 24.2925 22.5 23.3925C22.5 22.4925 23.1 21.8925 24 21.8925H25.5C26.4 21.8925 27 22.4925 27 23.3925C27 24.2925 26.4 24.8925 25.5 24.8925Z" fill="#787882"/>
<path d="M25.5 25.6425H24C22.8 25.6425 21.75 24.5925 21.75 23.3925C21.75 22.1925 22.8 21.1425 24 21.1425H25.5C26.7 21.1425 27.75 22.1925 27.75 23.3925C27.75 24.5925 26.7 25.6425 25.5 25.6425ZM24 22.6425C23.55 22.6425 23.25 22.9425 23.25 23.3925C23.25 23.8425 23.55 24.1425 24 24.1425H25.5C25.95 24.1425 26.25 23.8425 26.25 23.3925C26.25 22.9425 25.95 22.6425 25.5 22.6425H24Z" fill="#40455A"/>
<path d="M23.25 36.1425H22.95C22.35 35.8425 17.25 33.4425 17.25 30.1425V26.3925C17.25 25.9425 17.55 25.6425 18 25.6425C18.45 25.6425 18.75 25.9425 18.75 26.3925V30.1425C18.75 31.9425 21.75 33.8925 23.25 34.4925C24.75 33.7425 27.75 31.9425 27.75 30.1425V26.3925C27.75 25.9425 28.05 25.6425 28.5 25.6425C28.95 25.6425 29.25 25.9425 29.25 26.3925V30.1425C29.25 33.4425 24.15 35.8425 23.55 36.1425H23.25Z" fill="#40455A"/>
<path d="M23.25 28.6425C17.4 28.6425 12.75 23.9925 12.75 18.1425V14.3925C12.75 13.9425 13.05 13.6425 13.5 13.6425C13.95 13.6425 14.25 13.9425 14.25 14.3925V18.1425C14.25 23.0925 18.3 27.1425 23.25 27.1425C28.2 27.1425 32.25 23.0925 32.25 18.1425V14.3925C32.25 13.9425 32.55 13.6425 33 13.6425C33.45 13.6425 33.75 13.9425 33.75 14.3925V18.1425C33.75 23.9925 29.1 28.6425 23.25 28.6425Z" fill="#40455A"/>
<path d="M33 15.1425H32.25C31.05 15.1425 30 14.0925 30 12.8925V9.89248C26.85 12.2925 22.65 13.1925 18.75 12.4425L17.1 12.1425C16.8 12.1425 16.5 12.4425 16.5 12.8925C16.5 14.0925 15.45 15.1425 14.25 15.1425H13.5C13.2 15.1425 12.9 14.8425 12.75 14.5425L11.4 7.94248C11.1 6.59248 11.4 5.24248 12.3 4.04248C13.05 2.84248 14.25 2.09248 15.6 1.94248L25.8 0.142483C27.3 -0.157517 28.8 0.292483 29.85 1.19248C30.9 2.24248 31.5 3.29248 31.65 4.64248C32.7 4.79248 33.6 5.39248 34.2 6.14248C34.95 7.19248 35.4 8.39248 35.1 9.74248L33.6 14.6925C33.6 14.9925 33.3 15.1425 33 15.1425ZM30 8.39248C30.3 8.39248 30.45 8.39248 30.6 8.54248C31.2 8.84248 31.5 9.29248 31.5 9.89248V12.8925C31.5 13.3425 31.8 13.6425 32.25 13.6425H32.4L33.75 9.29248C33.9 8.54248 33.75 7.64248 33.15 7.04248C32.55 6.44248 31.8 5.99248 31.05 5.99248C30.6 5.99248 30.3 5.69248 30.3 5.24248C30.3 4.04248 29.85 3.14248 29.1 2.39248C28.35 1.79248 27.3 1.49248 26.25 1.64248L15.9 3.29248C15 3.44248 14.1 4.04248 13.5 4.79248C12.9 5.69248 12.6 6.74248 12.75 7.64248L13.95 13.6425H14.1C14.7 13.6425 15 13.3425 15 12.8925C15 11.6925 16.05 10.6425 17.25 10.6425L19.05 10.9425C22.5 11.6925 26.25 10.7925 29.1 8.69248C29.4 8.54248 29.7 8.39248 30 8.39248ZM42 48.1425H4.5C4.05 48.1425 3.75 47.8425 3.75 47.3925V40.7925C3.75 37.1925 6 34.0425 9.45 32.9925L17.85 30.1425C18.3 29.9925 18.6 30.2925 18.75 30.5925C18.9 30.8925 18.6 31.3425 18.3 31.4925L9.9 34.3425C7.2 35.2425 5.25 37.7925 5.25 40.7925V46.6425H41.25V40.7925C41.25 37.9425 39.45 35.2425 36.6 34.3425L28.2 31.6425C27.75 31.4925 27.6 31.0425 27.75 30.7425C27.9 30.2925 28.35 30.1425 28.65 30.2925L37.05 33.1425C40.5 34.1925 42.75 37.3425 42.75 40.9425V47.5425C42.75 47.8425 42.45 48.1425 42 48.1425Z" fill="#40455A"/>
<path d="M42 48.1425H33C32.55 48.1425 32.25 47.8425 32.25 47.3925V45.8925C32.25 40.9425 36 36.7425 40.8 36.2925C41.1 36.2925 41.4 36.4425 41.55 36.5925C42.3 37.9425 42.75 39.2925 42.75 40.7925V47.3925C42.75 47.8425 42.45 48.1425 42 48.1425ZM33.75 46.6425H41.25V40.7925C41.25 39.7425 40.95 38.6925 40.5 37.7925C36.6 38.5425 33.75 41.8425 33.75 45.8925V46.6425ZM13.5 48.1425H4.5C4.05 48.1425 3.75 47.8425 3.75 47.3925V40.7925C3.75 39.2925 4.2 37.7925 4.95 36.5925C5.1 36.2925 5.4 36.1425 5.7 36.1425C10.65 36.7425 14.25 40.9425 14.25 45.7425V47.2425C14.25 47.8425 13.95 48.1425 13.5 48.1425ZM5.25 46.6425H12.75V45.8925C12.75 41.8425 9.9 38.5425 6 37.7925C5.55 38.6925 5.25 39.7425 5.25 40.7925V46.6425ZM36 19.6425H33C32.55 19.6425 32.25 19.3425 32.25 18.8925V14.3925C32.25 13.9425 32.55 13.6425 33 13.6425H34.5C35.7 13.6425 36.75 14.6925 36.75 15.8925V18.8925C36.75 19.3425 36.45 19.6425 36 19.6425ZM33.75 18.1425H35.25V15.8925C35.25 15.4425 34.95 15.1425 34.5 15.1425H33.75V18.1425Z" fill="#40455A"/>
<path d="M31.5 24.1425H27C26.55 24.1425 26.25 23.8425 26.25 23.3925C26.25 22.9425 26.55 22.6425 27 22.6425H31.5C33.6 22.6425 35.25 20.9925 35.25 18.8925V15.8925C35.25 15.4425 35.55 15.1425 36 15.1425C36.45 15.1425 36.75 15.4425 36.75 15.8925V18.8925C36.75 21.7425 34.35 24.1425 31.5 24.1425ZM13.5 19.6425H12C10.8 19.6425 9.75 18.5925 9.75 17.3925V15.8925C9.75 14.6925 10.8 13.6425 12 13.6425H13.5C13.95 13.6425 14.25 13.9425 14.25 14.3925V18.8925C14.25 19.3425 13.95 19.6425 13.5 19.6425ZM12 15.1425C11.55 15.1425 11.25 15.4425 11.25 15.8925V17.3925C11.25 17.8425 11.55 18.1425 12 18.1425H12.75V15.1425H12Z" fill="#40455A"/>
<path d="M25.5 25.6425H24C22.8 25.6425 21.75 24.5925 21.75 23.3925C21.75 22.1925 22.8 21.1425 24 21.1425H25.5C26.7 21.1425 27.75 22.1925 27.75 23.3925C27.75 24.5925 26.7 25.6425 25.5 25.6425ZM24 22.6425C23.55 22.6425 23.25 22.9425 23.25 23.3925C23.25 23.8425 23.55 24.1425 24 24.1425H25.5C25.95 24.1425 26.25 23.8425 26.25 23.3925C26.25 22.9425 25.95 22.6425 25.5 22.6425H24Z" fill="#40455A"/>
</g>
<defs>
<clipPath id="clip0_402_776">
<rect width="48" height="48" fill="white" transform="translate(0 0.142456)"/>
</clipPath>
</defs>
</svg>
