<svg width="41" height="42" viewBox="0 0 41 42" fill="none" xmlns="http://www.w3.org/2000/svg">
<rect x="0.25" y="0.697998" width="40" height="40.604" rx="20" fill="#E71D36" fill-opacity="0.08"/>
<path fill-rule="evenodd" clip-rule="evenodd" d="M26.4653 15.9322C26.7571 15.9322 27 16.1745 27 16.4827V16.7677C27 17.0685 26.7571 17.3182 26.4653 17.3182H14.0354C13.7429 17.3182 13.5 17.0685 13.5 16.7677V16.4827C13.5 16.1745 13.7429 15.9322 14.0354 15.9322H16.2222C16.6664 15.9322 17.053 15.6165 17.1529 15.171L17.2674 14.6595C17.4454 13.9627 18.0311 13.5 18.7015 13.5H21.7985C22.4616 13.5 23.0539 13.9627 23.2253 14.6227L23.3478 15.1702C23.447 15.6165 23.8336 15.9322 24.2786 15.9322H26.4653ZM25.3544 26.3505C25.5827 24.2228 25.9824 19.1678 25.9824 19.1168C25.997 18.9623 25.9467 18.8161 25.8467 18.6983C25.7395 18.5881 25.6038 18.5228 25.4543 18.5228H15.0514C14.9011 18.5228 14.7582 18.5881 14.659 18.6983C14.5583 18.8161 14.5087 18.9623 14.516 19.1168C14.5173 19.1262 14.5317 19.3043 14.5557 19.602C14.6622 20.9244 14.9589 24.6076 15.1506 26.3505C15.2863 27.6345 16.1287 28.4415 17.349 28.4707C18.2907 28.4925 19.2608 28.5 20.2528 28.5C21.1872 28.5 22.1362 28.4925 23.107 28.4707C24.3697 28.449 25.2114 27.6562 25.3544 26.3505Z" fill="#E71D36"/>
</svg>
