<svg width="21" height="19" viewBox="0 0 21 19" fill="none" xmlns="http://www.w3.org/2000/svg">
<path d="M16.1196 10.0337L12.3936 13.0137H7.39355V12.0137H11.4586C11.549 12.0136 11.6377 11.989 11.7153 11.9426C11.7929 11.8961 11.8564 11.8294 11.8991 11.7497C11.9418 11.6699 11.962 11.5801 11.9577 11.4898C11.9534 11.3994 11.9247 11.312 11.8746 11.2367L10.9866 9.90467C10.8041 9.63079 10.5568 9.40618 10.2667 9.25076C9.97663 9.09533 9.65266 9.0139 9.32355 9.01367H1.39355C1.12834 9.01367 0.873984 9.11903 0.686448 9.30657C0.498911 9.4941 0.393555 9.74846 0.393555 10.0137V16.0137C0.393555 16.5441 0.604268 17.0528 0.979341 17.4279C1.35441 17.803 1.86312 18.0137 2.39355 18.0137H12.0326C12.4602 18.0138 12.8829 17.9225 13.2723 17.7458C13.6617 17.5692 14.0089 17.3114 14.2906 16.9897L20.3936 10.0137L18.9416 9.52967C18.4665 9.3715 17.9594 9.33476 17.4665 9.4228C16.9735 9.51083 16.5105 9.72084 16.1196 10.0337ZM17.6516 4.40367C18.1026 3.93867 18.3816 3.29567 18.3816 2.58567C18.3816 1.87567 18.1026 1.23267 17.6516 0.767672C17.4234 0.529788 17.1495 0.340397 16.8464 0.210839C16.5433 0.0812813 16.2172 0.0142204 15.8876 0.0136719C15.8876 0.0136719 14.6436 0.0106717 13.3936 1.29967C12.1436 0.0106717 10.8996 0.0136719 10.8996 0.0136719C10.57 0.014091 10.2439 0.0809949 9.94081 0.210379C9.63771 0.339764 9.36382 0.528969 9.13555 0.766672C8.68455 1.23267 8.40555 1.87467 8.40555 2.58467C8.40555 3.29467 8.68455 3.93867 9.13555 4.40267L13.3936 9.01367L17.6516 4.40367Z" fill="white"/>
</svg>
