<svg width="41" height="42" viewBox="0 0 41 42" fill="none" xmlns="http://www.w3.org/2000/svg">
<rect x="0.25" y="0.697998" width="40" height="40.604" rx="20" fill="#20A001" fill-opacity="0.08"/>
<path fill-rule="evenodd" clip-rule="evenodd" d="M17.6265 29.028L26.4129 17.6655C26.8904 17.0527 27.0602 16.3443 26.901 15.623C26.7631 14.9673 26.3599 14.3438 25.755 13.8708L24.28 12.6991C22.996 11.6778 21.4042 11.7853 20.4916 12.9571L19.5047 14.2374C19.3774 14.3975 19.4092 14.634 19.5684 14.763C19.5684 14.763 22.0621 16.7625 22.1152 16.8055C22.285 16.9667 22.4123 17.1817 22.4441 17.4397C22.4972 17.945 22.147 18.418 21.627 18.4825C21.383 18.5147 21.1495 18.4395 20.9797 18.2997L18.3587 16.2143C18.2313 16.1186 18.0403 16.139 17.9342 16.268L11.7051 24.3304C11.3019 24.8356 11.1639 25.4914 11.3019 26.1256L12.0978 29.5763C12.1402 29.759 12.2994 29.888 12.4904 29.888L15.9923 29.845C16.629 29.8343 17.2232 29.544 17.6265 29.028ZM22.5296 27.9531H28.2397C28.7969 27.9531 29.25 28.4121 29.25 28.9765C29.25 29.542 28.7969 29.9999 28.2397 29.9999H22.5296C21.9725 29.9999 21.5194 29.542 21.5194 28.9765C21.5194 28.4121 21.9725 27.9531 22.5296 27.9531Z" fill="#20A001"/>
</svg>
