<svg width="41" height="42" viewBox="0 0 41 42" fill="none" xmlns="http://www.w3.org/2000/svg">
<rect x="0.25" y="0.697998" width="40.5" height="40.604" rx="20.25" fill="#DAF8FF"/>
<path fill-rule="evenodd" clip-rule="evenodd" d="M23.6614 21.0003C23.6614 22.7463 22.2454 24.1613 20.4994 24.1613C18.7534 24.1613 17.3384 22.7463 17.3384 21.0003C17.3384 19.2533 18.7534 17.8383 20.4994 17.8383C22.2454 17.8383 23.6614 19.2533 23.6614 21.0003Z" stroke="#0C9EB7" stroke-width="1.5" stroke-linecap="round" stroke-linejoin="round"/>
<path fill-rule="evenodd" clip-rule="evenodd" d="M20.498 28.302C24.306 28.302 27.789 25.564 29.75 21C27.789 16.436 24.306 13.698 20.498 13.698H20.502C16.694 13.698 13.211 16.436 11.25 21C13.211 25.564 16.694 28.302 20.502 28.302H20.498Z" stroke="#0C9EB7" stroke-width="1.5" stroke-linecap="round" stroke-linejoin="round"/>
</svg>
