<svg width="28" height="28" viewBox="0 0 28 28" fill="none" xmlns="http://www.w3.org/2000/svg">
<path d="M5.66667 0C3.65348 0 2 1.65348 2 3.66667C2 5.67985 3.65348 7.33333 5.66667 7.33333C7.67985 7.33333 9.33333 5.67985 9.33333 3.66667C9.33333 1.65348 7.67985 0 5.66667 0ZM5.66667 2C6.59882 2 7.33333 2.73452 7.33333 3.66667C7.33333 4.59882 6.59882 5.33333 5.66667 5.33333C4.73452 5.33333 4 4.59882 4 3.66667C4 2.73452 4.73452 2 5.66667 2ZM13.3333 3.33333C13.2159 3.33333 13.1032 3.33576 12.9948 3.33854C12.861 3.33802 12.7285 3.36436 12.605 3.41598C12.4816 3.46761 12.3698 3.54348 12.2762 3.63911C12.1826 3.73473 12.1091 3.84816 12.0602 3.97268C12.0112 4.0972 11.9877 4.23028 11.9911 4.36404C11.9945 4.49779 12.0247 4.62951 12.08 4.75138C12.1352 4.87325 12.2143 4.98281 12.3126 5.07355C12.4109 5.1643 12.5265 5.2344 12.6524 5.27969C12.7783 5.32498 12.912 5.34455 13.0456 5.33724C13.1452 5.33469 13.2414 5.33333 13.3333 5.33333C16.482 5.33333 19.2255 7.00499 20.7461 9.50651C20.8143 9.6188 20.904 9.71655 21.01 9.79418C21.116 9.87181 21.2362 9.9278 21.3638 9.95895C21.4915 9.99011 21.624 9.99581 21.7538 9.97574C21.8837 9.95567 22.0083 9.91022 22.1206 9.84199C22.2328 9.77375 22.3306 9.68407 22.4082 9.57806C22.4858 9.47204 22.5417 9.35179 22.5729 9.22414C22.604 9.0965 22.6097 8.96398 22.5896 8.83414C22.5695 8.70431 22.524 8.57971 22.4557 8.46745C20.5844 5.38897 17.1914 3.33333 13.3333 3.33333ZM2.33333 8.66667C1.0567 8.66667 0 9.72336 0 11V12C0 13.9784 1.99107 16 5.66667 16C9.34227 16 11.3333 13.9784 11.3333 12V11C11.3333 9.72336 10.2766 8.66667 9 8.66667H2.33333ZM2.33333 10.6667H9C9.1967 10.6667 9.33333 10.8033 9.33333 11V12C9.33333 12.5989 8.65773 14 5.66667 14C2.6756 14 2 12.5989 2 12V11C2 10.8033 2.13664 10.6667 2.33333 10.6667ZM22.3333 12C20.3202 12 18.6667 13.6535 18.6667 15.6667C18.6667 17.6798 20.3202 19.3333 22.3333 19.3333C24.3465 19.3333 26 17.6798 26 15.6667C26 13.6535 24.3465 12 22.3333 12ZM22.3333 14C23.2655 14 24 14.7345 24 15.6667C24 16.5988 23.2655 17.3333 22.3333 17.3333C21.4012 17.3333 20.6667 16.5988 20.6667 15.6667C20.6667 14.7345 21.4012 14 22.3333 14ZM4.43099 18.0013C4.24904 17.9941 4.06857 18.0366 3.90903 18.1244C3.7495 18.2122 3.61696 18.3419 3.52571 18.4994C3.43446 18.657 3.38796 18.8365 3.39123 19.0186C3.3945 19.2006 3.44742 19.3784 3.54427 19.5326C5.41563 22.611 8.80862 24.6667 12.6667 24.6667C12.7841 24.6667 12.8968 24.6643 13.0052 24.6615C13.139 24.662 13.2715 24.6356 13.395 24.584C13.5184 24.5324 13.6302 24.4565 13.7238 24.3609C13.8174 24.2653 13.8909 24.1518 13.9398 24.0273C13.9888 23.9028 14.0123 23.7697 14.0089 23.636C14.0055 23.5022 13.9753 23.3705 13.92 23.2486C13.8648 23.1267 13.7857 23.0172 13.6874 22.9264C13.5891 22.8357 13.4735 22.7656 13.3476 22.7203C13.2217 22.675 13.088 22.6554 12.9544 22.6628C12.8548 22.6653 12.7586 22.6667 12.6667 22.6667C9.51804 22.6667 6.77455 20.995 5.25391 18.4935C5.16895 18.3491 5.04907 18.2283 4.90528 18.1423C4.76149 18.0563 4.5984 18.0078 4.43099 18.0013ZM19 20.6667C17.7234 20.6667 16.6667 21.7234 16.6667 23V24C16.6667 25.9784 18.6577 28 22.3333 28C26.0089 28 28 25.9784 28 24V23C28 21.7234 26.9433 20.6667 25.6667 20.6667H19ZM19 22.6667H25.6667C25.8634 22.6667 26 22.8033 26 23V24C26 24.5989 25.3244 26 22.3333 26C19.3423 26 18.6667 24.5989 18.6667 24V23C18.6667 22.8033 18.8033 22.6667 19 22.6667Z" fill="#AB348E"/>
</svg>
