<svg width="17" height="17" viewBox="0 0 17 17" fill="none" xmlns="http://www.w3.org/2000/svg">
<path d="M6.69054 1.54781C6.17867 2.05968 5.67144 2.29732 4.94168 2.29732C4.3045 2.29732 3.39795 2.17374 2.90001 2.67587C2.406 3.17403 2.52903 4.07685 2.52903 4.70997C2.52903 5.43975 2.29137 5.94698 1.77949 6.45887C0.926501 7.31185 0.500007 7.73834 0.5 8.26832C0.500013 8.7983 0.926511 9.22483 1.77951 10.0778C2.35293 10.6512 2.52903 11.0215 2.52903 11.8267C2.52903 12.4639 2.40545 13.3704 2.9076 13.8684C3.40576 14.3623 4.30856 14.2393 4.94167 14.2393C5.71881 14.2393 6.09305 14.3913 6.64768 14.946C7.11996 15.4183 7.75306 16.2684 8.50005 16.2684C9.24701 16.2684 9.88011 15.4183 10.3524 14.946C10.907 14.3913 11.2812 14.2393 12.0584 14.2393C12.6915 14.2393 13.5943 14.3623 14.0925 13.8684C14.5946 13.3704 14.471 12.4639 14.471 11.8267C14.471 11.0215 14.6471 10.6512 15.2205 10.0778C16.0735 9.22483 16.5 8.7983 16.5001 8.26832C16.5 7.73834 16.0736 7.31185 15.2206 6.45886C14.6471 5.88543 14.471 5.51519 14.471 4.70997C14.471 4.0728 14.5946 3.16627 14.0925 2.66832C13.5943 2.17429 12.6915 2.29732 12.0584 2.29732C11.3284 2.29732 10.8213 2.05957 10.3095 1.54781C9.45651 0.69481 9.03001 0.268311 8.50003 0.268311C7.97004 0.268311 7.54354 0.694811 6.69054 1.54781Z" fill="#00A14A"/>
<path d="M5.46852 8.9901C5.46852 8.9901 6.68116 9.51703 7.28747 10.2893C7.28747 10.2893 9.10643 7.25776 11.5317 6.24723" stroke="white" stroke-linecap="round" stroke-linejoin="round"/>
</svg>
