<svg width="32" height="29" viewBox="0 0 32 29" fill="none" xmlns="http://www.w3.org/2000/svg">
<path d="M4.52092 0.1875C4.3219 0.187549 4.12743 0.246972 3.96237 0.358167C3.79732 0.469363 3.6692 0.627273 3.59439 0.811694C3.51959 0.996115 3.50151 1.19866 3.54247 1.39342C3.58342 1.58817 3.68155 1.76628 3.8243 1.90495L4.76701 2.84766C4.85916 2.94363 4.96952 3.02025 5.09165 3.07303C5.21378 3.12582 5.34521 3.1537 5.47825 3.15505C5.61129 3.15641 5.74326 3.1312 5.86644 3.08091C5.98962 3.03062 6.10152 2.95626 6.1956 2.86218C6.28968 2.7681 6.36404 2.6562 6.41433 2.53302C6.46462 2.40985 6.48982 2.27788 6.48847 2.14484C6.48712 2.0118 6.45923 1.88036 6.40645 1.75824C6.35366 1.63611 6.27704 1.52574 6.18107 1.43359L5.23836 0.490885C5.14515 0.394895 5.03363 0.318584 4.91039 0.266471C4.78716 0.214359 4.65472 0.187505 4.52092 0.1875ZM27.4493 0.188802C27.1896 0.196371 26.943 0.304711 26.7618 0.490885L25.8191 1.43359C25.7231 1.52574 25.6465 1.63611 25.5937 1.75824C25.5409 1.88036 25.513 2.0118 25.5117 2.14484C25.5103 2.27788 25.5355 2.40985 25.5858 2.53303C25.6361 2.65621 25.7105 2.76811 25.8046 2.86219C25.8986 2.95627 26.0105 3.03063 26.1337 3.08092C26.2569 3.13121 26.3889 3.15641 26.5219 3.15506C26.655 3.15371 26.7864 3.12582 26.9085 3.07304C27.0306 3.02025 27.141 2.94363 27.2332 2.84766L28.1759 1.90495C28.3201 1.76444 28.4186 1.58366 28.4584 1.38626C28.4983 1.18885 28.4776 0.984026 28.3991 0.798581C28.3205 0.613135 28.1879 0.455711 28.0184 0.346912C27.849 0.238112 27.6506 0.183005 27.4493 0.188802ZM16.0001 1.67708C10.8599 1.67857 6.66675 5.85795 6.66675 11C6.66675 13.6663 7.79435 16.0797 9.59253 17.7786C9.80403 17.9784 9.95937 18.2597 10.0313 18.582L11.6759 25.9844C11.9796 27.3515 13.2038 28.3333 14.6042 28.3333H16.0001H17.3959C18.7965 28.3333 20.0204 27.3514 20.3243 25.9844L21.9701 18.582V18.5807C22.0415 18.2593 22.1959 17.9796 22.4076 17.7799V17.7786H22.4089C24.2063 16.0797 25.3334 13.6663 25.3334 11C25.3334 5.85795 21.1402 1.67857 16.0001 1.67708ZM16.0001 3.67708C20.0626 3.67826 23.3334 6.93938 23.3334 11C23.3334 13.1044 22.4499 14.9872 21.0339 16.3255C20.5025 16.8271 20.1669 17.4731 20.017 18.1484L19.2358 21.6667H12.7644L11.9832 18.1471C11.8325 17.4721 11.4974 16.8271 10.9662 16.3255C9.54974 14.9872 8.66675 13.1044 8.66675 11C8.66675 6.93938 11.9376 3.67826 16.0001 3.67708ZM1.00008 9C0.867571 8.99813 0.736008 9.02261 0.613039 9.07202C0.490071 9.12143 0.37815 9.19479 0.28378 9.28784C0.189411 9.38088 0.114474 9.49176 0.0633268 9.61401C0.0121791 9.73627 -0.0141602 9.86747 -0.0141602 10C-0.0141602 10.1325 0.0121791 10.2637 0.0633268 10.386C0.114474 10.5082 0.189411 10.6191 0.28378 10.7122C0.37815 10.8052 0.490071 10.8786 0.613039 10.928C0.736008 10.9774 0.867571 11.0019 1.00008 11H3.00008C3.13259 11.0019 3.26416 10.9774 3.38713 10.928C3.51009 10.8786 3.62201 10.8052 3.71638 10.7122C3.81075 10.6191 3.88569 10.5082 3.93684 10.386C3.98799 10.2637 4.01433 10.1325 4.01433 10C4.01433 9.86747 3.98799 9.73627 3.93684 9.61401C3.88569 9.49176 3.81075 9.38088 3.71638 9.28784C3.62201 9.19479 3.51009 9.12143 3.38713 9.07202C3.26416 9.02261 3.13259 8.99813 3.00008 9H1.00008ZM29.0001 9C28.8676 8.99813 28.736 9.02261 28.613 9.07202C28.4901 9.12143 28.3782 9.19479 28.2838 9.28784C28.1894 9.38088 28.1145 9.49176 28.0633 9.61401C28.0122 9.73627 27.9858 9.86747 27.9858 10C27.9858 10.1325 28.0122 10.2637 28.0633 10.386C28.1145 10.5082 28.1894 10.6191 28.2838 10.7122C28.3782 10.8052 28.4901 10.8786 28.613 10.928C28.736 10.9774 28.8676 11.0019 29.0001 11H31.0001C31.1326 11.0019 31.2642 10.9774 31.3871 10.928C31.5101 10.8786 31.622 10.8052 31.7164 10.7122C31.8108 10.6191 31.8857 10.5082 31.9368 10.386C31.988 10.2637 32.0143 10.1325 32.0143 10C32.0143 9.86747 31.988 9.73627 31.9368 9.61401C31.8857 9.49176 31.8108 9.38088 31.7164 9.28784C31.622 9.19479 31.5101 9.12143 31.3871 9.07202C31.2642 9.02261 31.1326 8.99813 31.0001 9H29.0001ZM26.5157 16.849C26.3167 16.849 26.1222 16.9084 25.9572 17.0196C25.7921 17.1308 25.664 17.2887 25.5892 17.4732C25.5144 17.6576 25.4963 17.8601 25.5373 18.0549C25.5782 18.2496 25.6763 18.4277 25.8191 18.5664L26.7618 19.5091C26.8539 19.6051 26.9643 19.6817 27.0864 19.7345C27.2086 19.7873 27.34 19.8152 27.473 19.8165C27.6061 19.8179 27.7381 19.7927 27.8612 19.7424C27.9844 19.6921 28.0963 19.6177 28.1904 19.5236C28.2845 19.4296 28.3588 19.3177 28.4091 19.1945C28.4594 19.0713 28.4846 18.9393 28.4833 18.8063C28.4819 18.6733 28.454 18.5418 28.4012 18.4197C28.3485 18.2976 28.2718 18.1872 28.1759 18.095L27.2332 17.1523C27.1399 17.0564 27.0284 16.98 26.9052 16.9279C26.7819 16.8758 26.6495 16.849 26.5157 16.849ZM5.45451 16.8503C5.1948 16.8578 4.94824 16.9662 4.76701 17.1523L3.8243 18.095C3.72833 18.1872 3.65171 18.2976 3.59893 18.4197C3.54614 18.5418 3.51826 18.6733 3.51691 18.8063C3.51555 18.9393 3.54076 19.0713 3.59105 19.1945C3.64134 19.3177 3.7157 19.4296 3.80978 19.5236C3.90385 19.6177 4.01576 19.6921 4.13893 19.7424C4.26211 19.7927 4.39408 19.8179 4.52712 19.8165C4.66016 19.8152 4.79159 19.7873 4.91372 19.7345C5.03585 19.6817 5.14622 19.6051 5.23836 19.5091L6.18107 18.5664C6.32534 18.4259 6.42383 18.2451 6.46365 18.0477C6.50347 17.8503 6.48277 17.6455 6.40426 17.46C6.32575 17.2746 6.19308 17.1172 6.02362 17.0084C5.85416 16.8996 5.65581 16.8445 5.45451 16.8503ZM13.2097 23.6667H18.7904L18.3725 25.5508C18.2697 26.0131 17.87 26.3333 17.3959 26.3333H16.0001H14.6042C14.1287 26.3333 13.7307 26.0143 13.6277 25.5508L13.2097 23.6667Z" fill="#AB348E"/>
</svg>
