<svg width="38" height="39" viewBox="0 0 38 39" fill="none" xmlns="http://www.w3.org/2000/svg">
<path d="M11.0833 28.7683V24.81M11.0833 24.81V22.435C11.0833 21.6886 11.0833 21.3154 11.3268 21.0835C11.5703 20.8516 11.9621 20.8516 12.7458 20.8516H13.8542C15.0019 20.8516 15.9323 21.7377 15.9323 22.8308C15.9323 23.9239 15.0019 24.81 13.8542 24.81H11.0833ZM33.25 20.8516H31.1719C29.8657 20.8516 29.2126 20.8516 28.8068 21.2381C28.401 21.6246 28.401 22.2465 28.401 23.4905V24.81M28.401 28.7683V24.81M28.401 24.81H31.8646M24.9375 24.81C24.9375 26.9961 23.0767 28.7683 20.7812 28.7683C20.2633 28.7683 20.0043 28.7683 19.8115 28.6622C19.3496 28.4083 19.3958 27.8943 19.3958 27.4489V22.1711C19.3958 21.7257 19.3496 21.2116 19.8115 20.9577C20.0043 20.8516 20.2633 20.8516 20.7812 20.8516C23.0767 20.8516 24.9375 22.6238 24.9375 24.81Z" stroke="#0C9EB7" stroke-width="2" stroke-linecap="round" stroke-linejoin="round"/>
<path d="M23.75 35.1017H16.9849C11.8213 35.1017 9.23949 35.1017 7.44653 33.8384C6.93282 33.4765 6.47676 33.0472 6.0922 32.5637C4.75 30.8763 4.75 28.4463 4.75 23.5865V19.5562C4.75 14.8645 4.75001 12.5187 5.49249 10.6451C6.68613 7.63307 9.21047 5.25722 12.4107 4.1338C14.4014 3.43499 16.8939 3.43499 21.8788 3.43499C24.7273 3.43499 26.1516 3.43499 27.2891 3.8343C29.1178 4.47626 30.5603 5.83389 31.2424 7.55505C31.6667 8.62566 31.6667 9.96614 31.6667 12.6471V16.1017" stroke="#0C9EB7" stroke-width="2" stroke-linecap="round" stroke-linejoin="round"/>
<path d="M4.74999 19.2683C4.74999 16.3535 7.11294 13.9905 10.0278 13.9905C11.0819 13.9905 12.3247 14.1752 13.3497 13.9006C14.2603 13.6566 14.9716 12.9453 15.2156 12.0346C15.4903 11.0097 15.3056 9.76691 15.3056 8.71275C15.3056 5.79792 17.6685 3.43498 20.5833 3.43498" stroke="#0C9EB7" stroke-width="2" stroke-linecap="round" stroke-linejoin="round"/>
</svg>
