<svg width="35" height="35" viewBox="0 0 35 35" fill="none" xmlns="http://www.w3.org/2000/svg">
<path d="M34.7607 17.626C34.7607 27.0148 27.1496 34.626 17.7607 34.626C8.3719 34.626 0.760742 27.0148 0.760742 17.626C0.760742 8.23714 8.3719 0.625977 17.7607 0.625977C27.1496 0.625977 34.7607 8.23714 34.7607 17.626Z" fill="#DDF9FD"/>
<g clip-path="url(#clip0_568_55303)">
<path d="M24.7389 21.2082L24.1031 23.9644C24.0138 24.3541 23.6714 24.6267 23.2702 24.6267C16.3717 24.6261 10.7607 19.0152 10.7607 12.1164C10.7607 11.7155 11.0333 11.3726 11.423 11.2838L14.1793 10.648C14.5807 10.555 14.9908 10.7633 15.1576 11.1435L16.4296 14.1103C16.5783 14.4597 16.478 14.8669 16.1841 15.107L14.7119 16.289C15.6411 18.1818 17.18 19.7207 19.0732 20.6504L20.2786 19.1793C20.5161 18.8845 20.9263 18.7825 21.2758 18.9339L24.2426 20.2056C24.5994 20.3933 24.8318 20.809 24.7389 21.2082Z" fill="#0C9EB7"/>
</g>
<defs>
<clipPath id="clip0_568_55303">
<rect width="14" height="14" fill="white" transform="translate(10.7607 10.626)"/>
</clipPath>
</defs>
</svg>
