<svg width="25" height="24" viewBox="0 0 25 24" fill="none" xmlns="http://www.w3.org/2000/svg">
<path d="M12.5723 7C13.1246 7 13.5723 6.55228 13.5723 6C13.5723 5.44772 13.1246 5 12.5723 5C12.02 5 11.5723 5.44772 11.5723 6C11.5723 6.55228 12.02 7 12.5723 7Z" fill="#AB348E"/>
<path d="M6.57227 17H18.5723V19H6.57227V17ZM10.5723 11.83L13.3643 14.624L17.2963 10.689L18.5723 12V8H14.5723L15.8823 9.275L13.3633 11.794L10.5723 9L6.57227 13L7.98627 14.414L10.5723 11.83Z" fill="#AB348E"/>
<path d="M19.5723 3.00007H16.2743C16.1752 2.85282 16.0684 2.71096 15.9543 2.57507L15.9443 2.56307C15.2093 1.70764 14.1757 1.16475 13.0543 1.04507C12.7357 0.984977 12.4088 0.984977 12.0903 1.04507C10.9688 1.16475 9.93525 1.70764 9.20026 2.56307L9.19026 2.57507C9.07616 2.71063 8.96934 2.85216 8.87027 2.99907V3.00007H5.57227C4.77686 3.00086 4.01426 3.31719 3.45182 3.87963C2.88939 4.44206 2.57306 5.20466 2.57227 6.00007V20.0001C2.57306 20.7955 2.88939 21.5581 3.45182 22.1205C4.01426 22.6829 4.77686 22.9993 5.57227 23.0001H19.5723C20.3677 22.9993 21.1303 22.6829 21.6927 22.1205C22.2551 21.5581 22.5715 20.7955 22.5723 20.0001V6.00007C22.5715 5.20466 22.2551 4.44206 21.6927 3.87963C21.1303 3.31719 20.3677 3.00086 19.5723 3.00007ZM20.5723 20.0001C20.5723 20.2653 20.4669 20.5196 20.2794 20.7072C20.0918 20.8947 19.8375 21.0001 19.5723 21.0001H5.57227C5.30705 21.0001 5.0527 20.8947 4.86516 20.7072C4.67762 20.5196 4.57227 20.2653 4.57227 20.0001V6.00007C4.57227 5.73485 4.67762 5.4805 4.86516 5.29296C5.0527 5.10543 5.30705 5.00007 5.57227 5.00007H10.1223C10.237 4.43492 10.5436 3.92683 10.9901 3.56188C11.4366 3.19693 11.9956 2.99756 12.5723 2.99756C13.1489 2.99756 13.7079 3.19693 14.1544 3.56188C14.6009 3.92683 14.9075 4.43492 15.0223 5.00007H19.5723C19.8375 5.00007 20.0918 5.10543 20.2794 5.29296C20.4669 5.4805 20.5723 5.73485 20.5723 6.00007V20.0001Z" fill="#AB348E"/>
</svg>
