<svg width="48" height="49" viewBox="0 0 48 49" fill="none" xmlns="http://www.w3.org/2000/svg">
<g clip-path="url(#clip0_402_803)">
<path d="M18.5287 36.5703L15.9253 33.9669C14.1273 35.1469 12.7561 35.8886 12.7368 35.9001C12.6827 35.9291 12.6228 35.9446 12.5649 35.9446C12.4703 35.9446 12.3776 35.9079 12.3061 35.8383C12.1922 35.7244 12.1671 35.5487 12.2424 35.4077C12.254 35.3884 12.9956 34.0171 14.1756 32.2191L11.5722 29.6158L11.0257 29.0692C8.60192 30.2647 6.52386 31.9352 4.83978 34.0423C3.41064 35.8326 2.26346 37.9376 1.43108 40.2996C0.0154502 44.3147 0 47.6385 0 47.7775C0 47.9784 0.164159 48.1425 0.365012 48.1425C0.504064 48.1425 3.82779 48.1271 7.84292 46.7114C10.2049 45.8791 12.31 44.7319 14.1003 43.3027C16.2073 41.6206 17.8778 39.5406 19.0733 37.1169L18.5268 36.5703H18.5287Z" fill="#FFE100"/>
<path d="M47.2 7.85602C47.0629 7.60689 46.9007 7.32492 46.7095 7.01978C46.1456 6.12173 45.3364 5.01511 44.2297 3.91042C43.125 2.80573 42.0184 1.99459 41.1204 1.43259C40.8152 1.24139 40.5333 1.07723 40.2841 0.942044C40.2069 0.899556 40.118 0.886037 40.0311 0.90535C36.2033 1.7358 32.4798 3.28469 28.9591 5.50952C25.9985 7.38093 23.146 9.7506 20.4827 12.5548C19.1598 13.9492 17.9643 15.3629 16.8963 16.7399C16.7283 16.9562 16.5642 17.1706 16.4019 17.385C14.3741 20.0733 12.8465 22.5724 11.8113 24.4264C11.6858 24.6504 11.5699 24.8648 11.4579 25.0676C11.3304 25.3051 11.2107 25.5292 11.1006 25.7377C11.0272 25.8787 11.0542 26.0525 11.1662 26.1645L11.5197 26.518L15.4131 30.4114C15.556 30.2144 15.7009 30.0155 15.8496 29.8166C15.95 29.6814 16.0524 29.5462 16.1567 29.411C17.5028 27.6632 18.8102 26.2669 20.0463 25.2626C21.6299 23.9745 23.1131 23.3236 24.4496 23.3236C24.6504 23.3236 24.8146 23.4878 24.8146 23.6886C24.8146 25.027 24.1618 26.5083 22.8756 28.092C21.8713 29.328 20.475 30.6374 18.7272 31.9816C18.592 32.0858 18.4568 32.1882 18.3216 32.2886C18.1227 32.4373 17.9238 32.5841 17.7268 32.7251L21.6203 36.6185L21.9737 36.972C22.0432 37.0415 22.1378 37.0782 22.2325 37.0782C22.2904 37.0782 22.3483 37.0647 22.4005 37.0376C22.6091 36.9295 22.8331 36.8097 23.0706 36.6804C23.2754 36.5703 23.4878 36.4525 23.7118 36.3269C25.5659 35.2937 28.0649 33.7641 30.7513 31.7363C30.9657 31.5741 31.1801 31.4099 31.3964 31.2419C32.7734 30.1739 34.1871 28.9784 35.5815 27.6555C38.3857 24.9923 40.7554 22.1417 42.6268 19.1791C44.8497 15.6603 46.3986 11.9349 47.2309 8.10709C47.2503 8.02211 47.2367 7.93134 47.1942 7.85409L47.2 7.85602ZM30.8711 11.9445C30.8711 10.5231 31.4254 9.18474 32.4296 8.18048C33.4339 7.17621 34.7723 6.62 36.1937 6.62C37.6151 6.62 38.9535 7.17428 39.9577 8.18048C40.9639 9.18667 41.5163 10.5231 41.5163 11.9445C41.5163 13.366 40.962 14.7043 39.9577 15.7086C38.9516 16.7148 37.6151 17.2671 36.1937 17.2671C34.7723 17.2671 33.4339 16.7129 32.4296 15.7086C31.4254 14.7043 30.8711 13.366 30.8711 11.9445Z" fill="#E0E0E0"/>
<path d="M30.7579 31.7383C28.0695 33.7661 25.5705 35.2937 23.7184 36.3289C23.4943 36.4544 23.28 36.5703 23.0772 36.6823C23.3785 37.1709 23.6952 37.7542 23.9829 38.4224C24.8559 40.4483 25.6381 43.6967 24.4136 47.6713C24.3634 47.8316 24.431 48.0054 24.5739 48.0904C24.6319 48.1252 24.6975 48.1425 24.7613 48.1425C24.8559 48.1425 24.9486 48.1058 25.02 48.0363C27.2758 45.7806 28.9908 43.4148 30.1148 41.0045C31.0186 39.0675 31.5458 37.0956 31.683 35.1489C31.7969 33.5228 31.6192 32.1921 31.4049 31.2458C31.1885 31.4138 30.9742 31.578 30.7598 31.7402L30.7579 31.7383ZM16.899 16.74C15.9508 16.5236 14.6201 16.3479 12.9959 16.4618C11.0472 16.597 9.07734 17.1262 7.14027 18.03C4.73003 19.154 2.36421 20.869 0.108479 23.1248C-0.00932854 23.2426 -0.0325039 23.428 0.0544037 23.5709C0.141311 23.7138 0.313195 23.7814 0.473491 23.7312C4.44999 22.5087 7.69841 23.2908 9.72239 24.1619C10.3906 24.4496 10.9739 24.7663 11.4625 25.0676C11.5726 24.8629 11.6904 24.6505 11.8159 24.4264C12.8491 22.5724 14.3787 20.0733 16.4065 17.385C16.5688 17.1706 16.7329 16.9563 16.9009 16.74H16.899ZM47.9965 0.505623C47.9945 0.308633 47.8342 0.148336 47.6353 0.144474C45.0551 0.113573 42.4962 0.368502 40.0319 0.905398C40.1169 0.886085 40.2076 0.899604 40.2849 0.942092C40.534 1.07921 40.816 1.24144 41.1211 1.43264C42.0192 1.99657 43.1239 2.80578 44.2305 3.91047C45.3352 5.01516 46.1463 6.12178 46.7102 7.01983C46.9014 7.32497 47.0656 7.60693 47.2008 7.85607C47.2433 7.93332 47.2568 8.02216 47.2375 8.10907C47.7724 5.64475 48.0293 3.08581 47.9984 0.505623H47.9965ZM24.4561 23.3217C23.1177 23.3217 21.6364 23.9745 20.0528 25.2608C18.8168 26.265 17.5074 27.6613 16.1632 29.4091C16.0589 29.5443 15.9566 29.6795 15.8561 29.8147C15.7074 30.0136 15.5606 30.2125 15.4197 30.4095C15.128 30.8132 14.8499 31.213 14.5892 31.5973C14.4463 31.8078 14.3092 32.0144 14.1759 32.2172C12.9959 34.0152 12.2543 35.3864 12.2427 35.4058C12.1655 35.5467 12.1925 35.7225 12.3064 35.8364C12.376 35.906 12.4706 35.9427 12.5652 35.9427C12.6251 35.9427 12.683 35.9291 12.7371 35.8982C12.7564 35.8866 14.1276 35.145 15.9257 33.965C16.1265 33.8318 16.3332 33.6946 16.5456 33.5517C16.9299 33.291 17.3297 33.0129 17.7333 32.7213C17.9303 32.5784 18.1292 32.4335 18.3282 32.2848C18.4634 32.1844 18.5985 32.082 18.7337 31.9777C20.4815 30.6316 21.8779 29.3242 22.8821 28.0881C24.1703 26.5045 24.8211 25.0213 24.8211 23.6848C24.8211 23.484 24.657 23.3198 24.4561 23.3198V23.3217Z" fill="#AB348E"/>
<path d="M32.9477 15.1949C33.8148 16.062 34.9697 16.541 36.1961 16.541C37.4224 16.541 38.5773 16.0639 39.4445 15.1949C40.3116 14.3277 40.7906 13.1728 40.7906 11.9464C40.7906 10.7201 40.3136 9.56517 39.4445 8.69803C38.5773 7.83089 37.4224 7.35193 36.1961 7.35193C34.9697 7.35193 33.8148 7.82895 32.9477 8.69803C32.0805 9.56517 31.6016 10.7201 31.6016 11.9464C31.6016 13.1728 32.0786 14.3277 32.9477 15.1949Z" fill="#AB348E"/>
<path d="M21.978 36.972L21.6246 36.6185L17.7311 32.7251C17.3275 33.0167 16.9277 33.2948 16.5434 33.5555C16.3329 33.6985 16.1263 33.8356 15.9235 33.9688L18.5268 36.5722L19.0734 37.1187L19.9289 37.9743C19.9985 38.0438 20.0912 38.0805 20.1877 38.0805C20.236 38.0805 20.2862 38.0709 20.3326 38.0516C20.3654 38.038 21.1283 37.7059 22.4048 37.0396C22.3508 37.0666 22.2928 37.0801 22.2368 37.0801C22.1422 37.0801 22.0495 37.0434 21.978 36.9739V36.972ZM11.1706 26.1645C11.0586 26.0525 11.0315 25.8787 11.1049 25.7377C10.4386 27.0143 10.1065 27.7791 10.0929 27.81C10.0331 27.9471 10.064 28.1074 10.1702 28.2117L11.0257 29.0672L11.5723 29.6138L14.1757 32.2172C14.3089 32.0163 14.446 31.8097 14.589 31.5972C14.8497 31.2129 15.1278 30.8131 15.4194 30.4095L11.5259 26.516L11.1725 26.1626L11.1706 26.1645ZM39.9621 8.18047C38.9559 7.17427 37.6195 6.62 36.198 6.62C34.7766 6.62 33.4382 7.17427 32.434 8.18047C31.4297 9.18666 30.8754 10.5231 30.8754 11.9445C30.8754 13.366 31.4297 14.7043 32.434 15.7086C33.4382 16.7129 34.7766 17.2671 36.198 17.2671C37.6195 17.2671 38.9578 16.7129 39.9621 15.7086C40.9683 14.7024 41.5206 13.366 41.5206 11.9445C41.5206 10.5231 40.9664 9.18473 39.9621 8.18047ZM39.4464 15.1949C38.5793 16.062 37.4244 16.541 36.198 16.541C34.9717 16.541 33.8168 16.0639 32.9496 15.1949C32.0825 14.3277 31.6035 13.1728 31.6035 11.9465C31.6035 10.7201 32.0805 9.56519 32.9496 8.69805C33.8168 7.83091 34.9717 7.35195 36.198 7.35195C37.4244 7.35195 38.5793 7.82898 39.4464 8.69805C40.3136 9.56519 40.7925 10.7201 40.7925 11.9465C40.7925 13.1728 40.3155 14.3277 39.4464 15.1949Z" fill="#BDBDBD"/>
</g>
<defs>
<clipPath id="clip0_402_803">
<rect width="48" height="48" fill="white" transform="translate(0 0.142456)"/>
</clipPath>
</defs>
</svg>
