<svg width="48" height="49" viewBox="0 0 48 49" fill="none" xmlns="http://www.w3.org/2000/svg">
<g clip-path="url(#clip0_402_841)">
<path d="M24.8186 1.35445L26.3745 4.5068C26.4399 4.63951 26.5367 4.75431 26.6564 4.84131C26.7761 4.92831 26.9152 4.9849 27.0617 5.0062L30.5406 5.5117C30.7092 5.53621 30.8675 5.60738 30.9977 5.71717C31.1279 5.82696 31.2248 5.97099 31.2775 6.13298C31.3301 6.29497 31.3364 6.46845 31.2955 6.63381C31.2547 6.79917 31.1685 6.94981 31.0465 7.0687L28.5291 9.52252C28.4232 9.62582 28.3439 9.75334 28.2982 9.89409C28.2524 10.0348 28.2416 10.1846 28.2666 10.3305L28.8609 13.7953C28.8897 13.9631 28.8709 14.1357 28.8067 14.2935C28.7426 14.4512 28.6355 14.5879 28.4977 14.688C28.36 14.7881 28.1969 14.8477 28.027 14.8599C27.8572 14.8722 27.6873 14.8368 27.5365 14.7575L24.4248 13.1217C24.2938 13.0528 24.1481 13.0168 24.0001 13.0168C23.8521 13.0168 23.7063 13.0528 23.5753 13.1217L20.4637 14.7576C20.3129 14.8369 20.143 14.8724 19.9731 14.8601C19.8032 14.8478 19.6401 14.7883 19.5023 14.6881C19.3645 14.588 19.2575 14.4513 19.1933 14.2935C19.1292 14.1357 19.1104 13.9632 19.1392 13.7953L19.7335 10.3305C19.7585 10.1846 19.7477 10.0348 19.702 9.89409C19.6562 9.75334 19.577 9.62582 19.471 9.52252L16.9536 7.0687C16.8317 6.94981 16.7454 6.79917 16.7046 6.63381C16.6638 6.46845 16.67 6.29497 16.7227 6.13298C16.7753 5.97099 16.8722 5.82696 17.0024 5.71717C17.1326 5.60738 17.2909 5.53621 17.4595 5.5117L20.9384 5.0062C21.0848 4.98491 21.2239 4.92833 21.3437 4.84133C21.4634 4.75433 21.5602 4.63952 21.6257 4.5068L23.1815 1.35445C23.2569 1.20174 23.3735 1.07316 23.5182 0.983254C23.6628 0.893349 23.8297 0.845703 24.0001 0.845703C24.1704 0.845703 24.3373 0.893349 24.4819 0.983254C24.6266 1.07316 24.7432 1.20174 24.8186 1.35445Z" fill="#0C9EB7"/>
<path d="M31.0468 7.06868C31.1687 6.94978 31.255 6.79914 31.2958 6.63378C31.3366 6.46842 31.3304 6.29494 31.2777 6.13295C31.2251 5.97097 31.1282 5.82693 30.998 5.71714C30.8678 5.60735 30.7094 5.53618 30.5409 5.51168L27.062 5.00618C26.9156 4.98489 26.7765 4.9283 26.6567 4.8413C26.537 4.7543 26.4402 4.63949 26.3747 4.50677L24.8188 1.35433C24.7434 1.20162 24.6268 1.07304 24.4821 0.983132C24.3375 0.893227 24.1706 0.845581 24.0002 0.845581C23.8299 0.845581 23.663 0.893227 23.5184 0.983132C23.3737 1.07304 23.2571 1.20162 23.1817 1.35433L22.9209 1.8829L24.4369 4.9548C24.5024 5.08751 24.5992 5.2023 24.7189 5.28928C24.8387 5.37626 24.9778 5.43283 25.1242 5.45411L28.6032 5.95961C28.7717 5.98412 28.9301 6.05529 29.0603 6.16508C29.1905 6.27487 29.2874 6.4189 29.34 6.58089C29.3927 6.74288 29.3989 6.91636 29.3581 7.08172C29.3173 7.24708 29.231 7.39772 29.1091 7.51661L26.5917 9.97043C26.4857 10.0737 26.4064 10.2013 26.3607 10.342C26.315 10.4827 26.3042 10.6325 26.3292 10.7784L26.9235 14.2433C26.9348 14.3088 26.9391 14.3754 26.9363 14.4419L27.5367 14.7575C27.6874 14.8367 27.8574 14.8722 28.0272 14.8599C28.1971 14.8476 28.3601 14.7881 28.4979 14.688C28.6357 14.5878 28.7427 14.4512 28.8069 14.2934C28.8711 14.1357 28.8899 13.9631 28.8611 13.7952L28.2668 10.3304C28.2418 10.1846 28.2526 10.0348 28.2983 9.89406C28.3441 9.75331 28.4233 9.62579 28.5293 9.52249L31.0468 7.06868Z" fill="#0C9EB7"/>
<path d="M8.1194 13.4874L9.53653 16.3589C9.59619 16.4798 9.68435 16.5844 9.79342 16.6636C9.90248 16.7429 10.0292 16.7944 10.1626 16.8138L13.3315 17.2742C13.4851 17.2965 13.6293 17.3613 13.7479 17.4613C13.8665 17.5614 13.9548 17.6926 14.0027 17.8401C14.0507 17.9877 14.0564 18.1457 14.0192 18.2963C13.982 18.4469 13.9034 18.5842 13.7923 18.6925L11.4992 20.9276C11.4027 21.0217 11.3305 21.1379 11.2888 21.2661C11.2472 21.3943 11.2373 21.5307 11.2601 21.6636L11.8014 24.8197C11.8277 24.9726 11.8106 25.1298 11.7521 25.2735C11.6937 25.4172 11.5962 25.5417 11.4707 25.6329C11.3452 25.7241 11.1967 25.7784 11.0419 25.7896C10.8872 25.8007 10.7324 25.7684 10.5951 25.6962L7.76072 24.2061C7.64139 24.1433 7.50858 24.1105 7.37376 24.1105C7.23894 24.1105 7.10614 24.1433 6.98681 24.2061L4.15247 25.6962C4.01514 25.7684 3.86035 25.8007 3.70561 25.7896C3.55087 25.7784 3.40235 25.7241 3.27684 25.6329C3.15132 25.5417 3.05383 25.4172 2.99538 25.2735C2.93693 25.1298 2.91986 24.9726 2.94609 24.8197L3.4874 21.6636C3.5102 21.5307 3.50035 21.3943 3.4587 21.2661C3.41705 21.1379 3.34486 21.0217 3.24834 20.9276L0.955216 18.6925C0.844113 18.5842 0.765524 18.4469 0.728338 18.2963C0.691151 18.1457 0.69685 17.9877 0.744791 17.8401C0.792731 17.6926 0.881 17.5614 0.999615 17.4613C1.11823 17.3613 1.26246 17.2965 1.416 17.2742L4.58494 16.8138C4.71835 16.7944 4.84505 16.7429 4.95411 16.6636C5.06318 16.5844 5.15134 16.4798 5.211 16.3589L6.62812 13.4874C6.69678 13.3482 6.803 13.2311 6.93477 13.1491C7.06654 13.0672 7.2186 13.0238 7.37376 13.0238C7.52892 13.0238 7.68099 13.0672 7.81276 13.1491C7.94453 13.2311 8.05075 13.3482 8.1194 13.4874ZM41.3721 13.4874L42.7892 16.3589C42.8488 16.4798 42.937 16.5844 43.0461 16.6636C43.1551 16.7429 43.2818 16.7944 43.4152 16.8138L46.5842 17.2742C46.7377 17.2965 46.882 17.3613 47.0006 17.4613C47.1192 17.5614 47.2075 17.6926 47.2554 17.8401C47.3033 17.9877 47.309 18.1457 47.2718 18.2963C47.2347 18.4469 47.1561 18.5842 47.045 18.6925L44.7518 20.9276C44.6553 21.0217 44.5831 21.1379 44.5415 21.2661C44.4998 21.3943 44.49 21.5307 44.5128 21.6636L45.0541 24.8197C45.0803 24.9726 45.0633 25.1298 45.0048 25.2735C44.9464 25.4172 44.8489 25.5417 44.7234 25.6329C44.5978 25.7241 44.4493 25.7784 44.2946 25.7896C44.1398 25.8007 43.985 25.7684 43.8477 25.6962L41.0134 24.2061C40.894 24.1433 40.7612 24.1105 40.6264 24.1105C40.4916 24.1105 40.3588 24.1433 40.2395 24.2061L37.4051 25.6962C37.2678 25.7684 37.113 25.8007 36.9583 25.7896C36.8035 25.7784 36.655 25.7241 36.5295 25.6329C36.404 25.5417 36.3065 25.4172 36.248 25.2735C36.1896 25.1298 36.1725 24.9726 36.1987 24.8197L36.7401 21.6636C36.7629 21.5307 36.753 21.3943 36.7114 21.2661C36.6697 21.1379 36.5975 21.0217 36.501 20.9276L34.2079 18.6925C34.0968 18.5842 34.0182 18.4469 33.981 18.2963C33.9438 18.1457 33.9495 17.9877 33.9974 17.8401C34.0454 17.6926 34.1337 17.5614 34.2523 17.4613C34.3709 17.3613 34.5151 17.2965 34.6687 17.2742L37.8376 16.8138C37.971 16.7944 38.0977 16.7429 38.2068 16.6636C38.3158 16.5844 38.404 16.4798 38.4637 16.3589L39.8808 13.4874C39.9494 13.3482 40.0557 13.2311 40.1874 13.1491C40.3192 13.0672 40.4713 13.0238 40.6264 13.0238C40.7816 13.0238 40.9336 13.0672 41.0654 13.1491C41.1972 13.2311 41.3034 13.3482 41.3721 13.4874Z" fill="#0C9EB7"/>
<path d="M13.7925 18.6925C13.9036 18.5842 13.9822 18.4469 14.0194 18.2963C14.0566 18.1457 14.0509 17.9877 14.0029 17.8401C13.955 17.6926 13.8667 17.5614 13.7481 17.4613C13.6295 17.3613 13.4853 17.2965 13.3317 17.2742L10.1628 16.8138C10.0294 16.7944 9.90269 16.7429 9.79363 16.6636C9.68456 16.5844 9.5964 16.4798 9.53674 16.3589L8.11962 13.4874C8.05096 13.3482 7.94474 13.2311 7.81297 13.1491C7.6812 13.0672 7.52914 13.0238 7.37398 13.0238C7.21882 13.0238 7.06675 13.0672 6.93498 13.1491C6.80321 13.2311 6.69699 13.3482 6.62834 13.4874L6.38965 13.9711C6.40277 13.9929 6.41665 14.0137 6.42827 14.0372L7.84549 16.9088C7.90517 17.0296 7.99332 17.1341 8.10237 17.2134C8.21142 17.2926 8.33808 17.3441 8.47146 17.3635L11.6404 17.824C11.7939 17.8464 11.9381 17.9112 12.0567 18.0112C12.1753 18.1112 12.2636 18.2424 12.3115 18.3899C12.3595 18.5375 12.3652 18.6955 12.328 18.8461C12.2908 18.9967 12.2123 19.1339 12.1012 19.2422L9.80815 21.4774C9.71163 21.5715 9.63944 21.6876 9.59779 21.8159C9.55614 21.9441 9.54629 22.0805 9.56909 22.2133L10.1103 25.3694C10.1147 25.3951 10.1157 25.42 10.1178 25.4452L10.5953 25.6962C10.7326 25.7684 10.8874 25.8007 11.0421 25.7896C11.1969 25.7784 11.3454 25.7241 11.4709 25.6329C11.5964 25.5417 11.6939 25.4172 11.7524 25.2735C11.8108 25.1298 11.8279 24.9726 11.8016 24.8197L11.2603 21.6636C11.2376 21.5307 11.2474 21.3943 11.2891 21.2661C11.3307 21.1379 11.4029 21.0217 11.4994 20.9276L13.7925 18.6925Z" fill="#0C9EB7"/>
<path d="M15.3431 33.3999C15.3887 33.2202 15.4865 33.0581 15.6241 32.9339C16.9778 31.7089 18.266 30.4135 19.4836 29.0531C20.988 27.3722 22.3815 25.5952 23.6555 23.7335C23.879 23.411 24.2003 23.1689 24.5718 23.0428C24.9434 22.9166 25.3457 22.9132 25.7194 23.0329L25.7585 23.0451C25.9984 23.1197 26.2205 23.2425 26.4112 23.406C26.6019 23.5696 26.7573 23.7703 26.8676 23.996C26.978 24.2217 27.0411 24.4676 27.053 24.7185C27.065 24.9695 27.0255 25.2202 26.9371 25.4554L25.3124 29.7762C25.2857 29.8472 25.2766 29.9235 25.2859 29.9987C25.2952 30.0739 25.3226 30.1457 25.3657 30.208C25.4089 30.2703 25.4665 30.3213 25.5336 30.3564C25.6007 30.3916 25.6754 30.41 25.7511 30.41H33.7318C34.8354 30.41 35.7754 31.2682 35.8146 32.3711C35.8246 32.6445 35.7794 32.9171 35.6816 33.1725C35.5839 33.428 35.4357 33.6612 35.2458 33.8581C35.0559 34.055 34.8283 34.2116 34.5766 34.3186C34.3248 34.4256 34.0541 34.4807 33.7806 34.4807H33.7318C34.8354 34.4807 35.7755 35.3389 35.8146 36.4419C35.8246 36.7153 35.7794 36.9879 35.6816 37.2433C35.5839 37.4988 35.4357 37.732 35.2458 37.9289C35.0559 38.1258 34.8283 38.2824 34.5766 38.3894C34.3248 38.4964 34.0541 38.5515 33.7806 38.5515H32.3749C33.4785 38.5515 34.4185 39.4097 34.4577 40.5127C34.4677 40.786 34.4224 41.0586 34.3247 41.314C34.227 41.5695 34.0788 41.8027 33.8889 41.9996C33.699 42.1965 33.4714 42.3531 33.2197 42.4601C32.968 42.5671 32.6972 42.6222 32.4237 42.6222H31.0668C31.6066 42.6222 32.1243 42.8367 32.506 43.2184C32.8876 43.6001 33.1021 44.1177 33.1021 44.6575V44.9125C33.1026 45.4109 32.9204 45.8922 32.5901 46.2654C32.2597 46.6385 31.804 46.8777 31.3092 46.9375C25.225 47.6632 18.7359 47.84 12.8676 45.8144C12.8339 45.8028 12.2564 45.6127 12.2586 45.6042L15.3431 33.3999ZM29.7427 45.8146C29.709 45.8029 29.1315 45.6128 29.1336 45.6043L29.7427 45.8146Z" fill="#FFCD85"/>
<path d="M0 31.9939H12.8159C13.1282 31.9939 13.4374 32.0554 13.7259 32.1749C14.0144 32.2944 14.2766 32.4695 14.4974 32.6903C14.7182 32.9111 14.8934 33.1733 15.0129 33.4618C15.1324 33.7503 15.1939 34.0595 15.1939 34.3718V44.9622C15.1939 45.2745 15.1324 45.5837 15.0129 45.8722C14.8934 46.1607 14.7182 46.4229 14.4974 46.6437C14.2766 46.8645 14.0144 47.0396 13.7259 47.1591C13.4374 47.2786 13.1282 47.3401 12.8159 47.3401H0" fill="#AB348E"/>
<path d="M10.8523 44.5276C11.6289 44.5276 12.2585 43.898 12.2585 43.1213C12.2585 42.3447 11.6289 41.7151 10.8523 41.7151C10.0756 41.7151 9.44604 42.3447 9.44604 43.1213C9.44604 43.898 10.0756 44.5276 10.8523 44.5276Z" fill="white"/>
<path d="M18.9801 10.0258C19.0044 10.0495 19.0226 10.0788 19.0332 10.1112C19.0437 10.1435 19.0462 10.1779 19.0404 10.2114L18.4461 13.6764C18.3951 13.9736 18.4283 14.2791 18.5419 14.5584C18.6555 14.8377 18.845 15.0797 19.089 15.2569C19.3329 15.4341 19.6216 15.5395 19.9223 15.5613C20.223 15.583 20.5239 15.5202 20.7908 15.3799L23.9024 13.7439C23.9325 13.7281 23.966 13.7198 24 13.7198C24.0339 13.7198 24.0674 13.7281 24.0975 13.7439L27.2092 15.3799C27.476 15.5202 27.7769 15.583 28.0776 15.5613C28.3784 15.5395 28.667 15.4341 28.911 15.2569C29.1549 15.0796 29.3444 14.8377 29.458 14.5584C29.5716 14.279 29.6048 13.9735 29.5538 13.6763L28.9596 10.2113C28.9538 10.1779 28.9563 10.1435 28.9668 10.1112C28.9773 10.0789 28.9955 10.0496 29.0198 10.0259L31.5372 7.57208C31.7531 7.36163 31.9059 7.09496 31.9782 6.80223C32.0504 6.50949 32.0393 6.20238 31.9462 5.91562C31.853 5.62885 31.6815 5.37387 31.4509 5.17952C31.2204 4.98516 30.9401 4.85919 30.6417 4.81583L27.1628 4.31033C27.1291 4.30543 27.0971 4.29241 27.0696 4.2724C27.0421 4.2524 27.0199 4.226 27.0049 4.19549L25.449 1.04315C25.3156 0.772751 25.1091 0.545085 24.8531 0.385893C24.597 0.2267 24.3015 0.142334 24 0.142334C23.6984 0.142334 23.4029 0.2267 23.1468 0.385893C22.8908 0.545085 22.6843 0.772751 22.5509 1.04315L20.995 4.19558C20.98 4.22606 20.9578 4.25243 20.9303 4.27242C20.9028 4.29241 20.8709 4.30542 20.8372 4.31033L17.3584 4.81583C17.06 4.85917 16.7797 4.98514 16.5491 5.17949C16.3186 5.37384 16.147 5.62881 16.0538 5.91558C15.9607 6.20235 15.9496 6.50947 16.0219 6.80221C16.0941 7.09494 16.2469 7.36162 16.4628 7.57208L18.9801 10.0258ZM17.3913 6.35005C17.4022 6.31217 17.4241 6.27838 17.4542 6.25297C17.4843 6.22756 17.5213 6.21169 17.5605 6.20737L21.0395 5.70186C21.2988 5.66423 21.545 5.5641 21.757 5.4101C21.9689 5.2561 22.1402 5.05286 22.2562 4.8179L23.8119 1.66546C23.8292 1.63036 23.856 1.60081 23.8892 1.58015C23.9225 1.55948 23.9608 1.54853 24 1.54853C24.0391 1.54853 24.0774 1.55948 24.1107 1.58015C24.1439 1.60081 24.1707 1.63036 24.188 1.66546L25.7438 4.8179C25.8597 5.05288 26.031 5.25615 26.243 5.41017C26.455 5.56418 26.7012 5.66432 26.9605 5.70196L30.4395 6.20746C30.4782 6.21307 30.5146 6.22941 30.5445 6.25463C30.5744 6.27985 30.5967 6.31295 30.6088 6.35016C30.6209 6.38738 30.6223 6.42724 30.6129 6.46523C30.6035 6.50322 30.5837 6.53782 30.5557 6.56511L28.0383 9.01902C27.8507 9.20187 27.7103 9.42761 27.6294 9.67678C27.5484 9.92594 27.5293 10.1911 27.5736 10.4493L28.1678 13.9141C28.1744 13.9526 28.1701 13.9923 28.1554 14.0285C28.1406 14.0647 28.1161 14.0961 28.0844 14.1191C28.0528 14.1421 28.0153 14.1558 27.9763 14.1586C27.9373 14.1615 27.8983 14.1533 27.8636 14.1351L24.752 12.4992C24.5201 12.3773 24.262 12.3136 24 12.3136C23.738 12.3136 23.4799 12.3773 23.248 12.4992L20.1364 14.1351C20.1018 14.1534 20.0627 14.1615 20.0237 14.1587C19.9847 14.1559 19.9472 14.1422 19.9156 14.1192C19.8839 14.0962 19.8593 14.0649 19.8446 14.0286C19.8298 13.9924 19.8255 13.9527 19.8322 13.9142L20.4264 10.4494C20.4708 10.1911 20.4516 9.92601 20.3707 9.67682C20.2897 9.42764 20.1493 9.20189 19.9617 9.01902L17.4443 6.56511C17.4152 6.53859 17.3946 6.50398 17.3851 6.4657C17.3757 6.42742 17.3778 6.3872 17.3913 6.35015V6.35005ZM47.5357 19.1958C47.7407 18.9959 47.8857 18.7426 47.9542 18.4646C48.0228 18.1867 48.0123 17.895 47.9238 17.6227C47.8353 17.3504 47.6724 17.1083 47.4536 16.9237C47.2347 16.7391 46.9685 16.6195 46.6852 16.5783L43.5163 16.1178C43.4957 16.1148 43.4761 16.1068 43.4593 16.0946C43.4424 16.0824 43.4288 16.0662 43.4196 16.0476L42.0024 13.176C41.8757 12.9192 41.6796 12.7031 41.4365 12.5519C41.1933 12.4008 40.9127 12.3207 40.6263 12.3207C40.34 12.3207 40.0594 12.4008 39.8162 12.5519C39.573 12.7031 39.377 12.9192 39.2502 13.176L37.833 16.0476C37.8238 16.0662 37.8102 16.0824 37.7934 16.0946C37.7766 16.1069 37.757 16.1148 37.7364 16.1179L34.5675 16.5783C34.2841 16.6195 34.018 16.7391 33.799 16.9237C33.5801 17.1082 33.4172 17.3504 33.3287 17.6227C33.2402 17.895 33.2297 18.1867 33.2983 18.4646C33.3669 18.7426 33.512 18.9959 33.717 19.1958L36.01 21.431C36.0249 21.4455 36.0361 21.4634 36.0425 21.4832C36.0489 21.503 36.0504 21.5241 36.0469 21.5446L35.5056 24.7007C35.4572 24.9829 35.4887 25.273 35.5966 25.5383C35.7045 25.8035 35.8845 26.0333 36.1161 26.2016C36.3478 26.3699 36.6219 26.47 36.9075 26.4907C37.1931 26.5113 37.4788 26.4517 37.7322 26.3184L40.5666 24.8283C40.585 24.8186 40.6055 24.8135 40.6263 24.8135C40.6471 24.8135 40.6676 24.8186 40.686 24.8283L43.5204 26.3184C43.7739 26.4516 44.0596 26.5113 44.3451 26.4906C44.6307 26.4699 44.9048 26.3698 45.1365 26.2015C45.3681 26.0332 45.548 25.8034 45.6559 25.5382C45.7638 25.273 45.7954 24.9829 45.747 24.7007L45.2057 21.5445C45.2022 21.524 45.2037 21.503 45.2102 21.4832C45.2166 21.4635 45.2277 21.4456 45.2426 21.4311L47.5357 19.1958ZM44.261 20.424C44.0828 20.5977 43.9495 20.812 43.8726 21.0487C43.7958 21.2853 43.7776 21.5371 43.8197 21.7823L44.361 24.9384C44.365 24.962 44.3624 24.9863 44.3534 25.0085C44.3444 25.0306 44.3293 25.0498 44.3099 25.0639C44.2906 25.078 44.2677 25.0864 44.2438 25.0881C44.2199 25.0898 44.196 25.0848 44.1748 25.0737L41.3404 23.5836C41.1202 23.4678 40.8751 23.4073 40.6263 23.4073C40.3775 23.4073 40.1324 23.4678 39.9122 23.5836L37.0778 25.0737C37.0566 25.0848 37.0328 25.0898 37.0089 25.0881C36.985 25.0864 36.9621 25.078 36.9427 25.0639C36.9234 25.0498 36.9083 25.0306 36.8993 25.0085C36.8903 24.9863 36.8876 24.962 36.8917 24.9384L37.433 21.7823C37.4751 21.5371 37.4569 21.2853 37.38 21.0486C37.3031 20.812 37.1698 20.5976 36.9916 20.4239L34.6986 18.1889C34.6814 18.1722 34.6693 18.151 34.6636 18.1277C34.6578 18.1045 34.6587 18.0801 34.6661 18.0573C34.6735 18.0345 34.6871 18.0143 34.7055 17.9988C34.7238 17.9834 34.746 17.9734 34.7697 17.9699L37.9387 17.5094C38.1849 17.4736 38.4187 17.3785 38.62 17.2323C38.8212 17.0861 38.9839 16.8931 39.094 16.67L40.5112 13.7984C40.5219 13.7769 40.5382 13.7589 40.5586 13.7462C40.5789 13.7336 40.6024 13.7269 40.6263 13.7269C40.6503 13.7269 40.6737 13.7336 40.6941 13.7462C40.7144 13.7589 40.7308 13.7769 40.7414 13.7984L42.1585 16.67C42.2686 16.8931 42.4313 17.0861 42.6326 17.2323C42.8339 17.3786 43.0678 17.4736 43.314 17.5094L46.4829 17.9699C46.5066 17.9733 46.5289 17.9833 46.5472 17.9988C46.5655 18.0142 46.5792 18.0345 46.5866 18.0572C46.594 18.08 46.5948 18.1044 46.5891 18.1277C46.5834 18.1509 46.5712 18.1721 46.5541 18.1888L44.261 20.424ZM2.75738 21.431C2.7723 21.4455 2.78346 21.4634 2.7899 21.4832C2.79633 21.503 2.79785 21.5241 2.79431 21.5446L2.25309 24.7007C2.20473 24.9829 2.23628 25.273 2.34417 25.5382C2.45207 25.8034 2.632 26.0332 2.86364 26.2015C3.09528 26.3698 3.36938 26.4699 3.65496 26.4906C3.94054 26.5113 4.2262 26.4516 4.47966 26.3184L7.314 24.8283C7.33241 24.8186 7.35291 24.8135 7.37372 24.8135C7.39453 24.8135 7.41502 24.8186 7.43344 24.8283L10.2679 26.3184C10.5213 26.4516 10.807 26.5113 11.0926 26.4906C11.3781 26.4699 11.6523 26.3698 11.8839 26.2015C12.1155 26.0332 12.2955 25.8034 12.4034 25.5382C12.5113 25.273 12.5428 24.9829 12.4944 24.7007L11.9531 21.5445C11.9496 21.524 11.9511 21.503 11.9576 21.4832C11.964 21.4635 11.9751 21.4456 11.99 21.4311L14.2831 19.1958C14.4881 18.9959 14.6331 18.7426 14.7017 18.4646C14.7703 18.1867 14.7597 17.895 14.6713 17.6227C14.5828 17.3504 14.4199 17.1083 14.201 16.9237C13.9821 16.7391 13.7159 16.6195 13.4326 16.5783L10.2638 16.1178C10.2432 16.1148 10.2236 16.1068 10.2068 16.0946C10.1899 16.0824 10.1763 16.0662 10.1671 16.0476L8.74988 13.176C8.62404 12.9185 8.42821 12.7017 8.18484 12.5504C7.94146 12.3992 7.66038 12.3195 7.37381 12.3206C7.08722 12.3195 6.80612 12.3991 6.56271 12.5504C6.3193 12.7017 6.12344 12.9185 5.99756 13.176L4.58044 16.0476C4.57124 16.0662 4.55765 16.0824 4.54083 16.0946C4.52401 16.1069 4.50446 16.1148 4.48387 16.1179L1.31494 16.5782C1.03156 16.6193 0.765349 16.739 0.546417 16.9236C0.327484 17.1081 0.164562 17.3503 0.0760739 17.6226C-0.0124138 17.895 -0.0229368 18.1866 0.045695 18.4646C0.114327 18.7426 0.259375 18.9959 0.464437 19.1958L2.75738 21.431ZM1.41347 18.0572C1.41978 18.0338 1.43309 18.0129 1.45163 17.9973C1.47016 17.9817 1.49303 17.9721 1.51716 17.9699L4.686 17.5094C4.93223 17.4736 5.16607 17.3786 5.36736 17.2323C5.56866 17.0861 5.73137 16.8931 5.84147 16.67L7.25869 13.7984C7.26929 13.7769 7.28568 13.7589 7.30602 13.7462C7.32636 13.7336 7.34982 13.7269 7.37377 13.7269C7.39771 13.7269 7.42118 13.7336 7.44151 13.7462C7.46185 13.7589 7.47824 13.7769 7.48884 13.7984L8.90597 16.67C9.01608 16.8931 9.17879 17.0861 9.38008 17.2323C9.58138 17.3785 9.81521 17.4736 10.0614 17.5094L13.2304 17.9699C13.2541 17.9734 13.2763 17.9834 13.2946 17.9988C13.3129 18.0142 13.3265 18.0345 13.3339 18.0572C13.3414 18.08 13.3423 18.1044 13.3365 18.1276C13.3308 18.1509 13.3187 18.1721 13.3016 18.1888L11.0085 20.424C10.8303 20.5976 10.697 20.812 10.6201 21.0487C10.5432 21.2853 10.525 21.5371 10.5671 21.7823L11.1084 24.9384C11.1125 24.962 11.1098 24.9863 11.1008 25.0085C11.0918 25.0306 11.0767 25.0498 11.0574 25.0639C11.038 25.078 11.0151 25.0864 10.9912 25.0881C10.9673 25.0898 10.9434 25.0848 10.9222 25.0737L8.08781 23.5836C7.86759 23.4678 7.62252 23.4073 7.37372 23.4073C7.12492 23.4073 6.87985 23.4678 6.65963 23.5836L3.82538 25.0737C3.80418 25.0849 3.78028 25.0899 3.75639 25.0882C3.73249 25.0864 3.70955 25.0781 3.69017 25.064C3.67079 25.0499 3.65573 25.0307 3.6467 25.0085C3.63768 24.9863 3.63504 24.962 3.63909 24.9384L4.18041 21.7823C4.22251 21.5371 4.20434 21.2853 4.12745 21.0486C4.05055 20.812 3.91725 20.5976 3.73903 20.4239L1.446 18.1889C1.42779 18.1729 1.41493 18.1517 1.40913 18.1281C1.40333 18.1046 1.40488 18.0798 1.41356 18.0572H1.41347ZM12.9619 43.1212C12.9619 42.704 12.8382 42.2962 12.6064 41.9493C12.3746 41.6025 12.0452 41.3321 11.6597 41.1724C11.2743 41.0128 10.8502 40.971 10.441 41.0524C10.0318 41.1338 9.65595 41.3347 9.36095 41.6297C9.06595 41.9247 8.86505 42.3005 8.78366 42.7097C8.70226 43.1189 8.74404 43.543 8.90369 43.9285C9.06334 44.3139 9.33371 44.6433 9.68059 44.8751C10.0275 45.1069 10.4353 45.2306 10.8525 45.2306C11.4118 45.23 11.9479 45.0076 12.3434 44.6121C12.7388 44.2167 12.9613 43.6805 12.9619 43.1212ZM10.1494 43.1212C10.1494 42.9822 10.1906 42.8462 10.2679 42.7306C10.3451 42.615 10.4549 42.5249 10.5834 42.4716C10.7119 42.4184 10.8533 42.4045 10.9897 42.4316C11.1261 42.4588 11.2514 42.5257 11.3497 42.6241C11.448 42.7224 11.515 42.8477 11.5421 42.9841C11.5692 43.1205 11.5553 43.2618 11.5021 43.3903C11.4489 43.5188 11.3588 43.6286 11.2431 43.7059C11.1275 43.7831 10.9916 43.8244 10.8525 43.8244C10.6661 43.8242 10.4874 43.75 10.3555 43.6182C10.2237 43.4864 10.1496 43.3077 10.1494 43.1212ZM36.5171 32.3463C36.4664 30.8906 35.2171 29.7065 33.7323 29.7065H26.0898L27.5954 25.7022C27.7175 25.3773 27.7719 25.0309 27.7554 24.6843C27.7388 24.3376 27.6516 23.998 27.4991 23.6862C27.3465 23.3745 27.1319 23.0972 26.8684 22.8713C26.6049 22.6455 26.298 22.4759 25.9666 22.3729L25.9282 22.361C25.4111 22.195 24.8542 22.2002 24.3404 22.376C23.8265 22.5517 23.3831 22.8885 23.0759 23.3363C21.8184 25.1723 20.4437 26.9252 18.9603 28.584C17.7653 29.9182 16.5016 31.1893 15.1744 32.3921C14.8857 32.0473 14.5249 31.7699 14.1175 31.5796C13.71 31.3893 13.2657 31.2907 12.816 31.2907H0.703125C0.516645 31.2907 0.337802 31.3648 0.205941 31.4967C0.074079 31.6285 0 31.8074 0 31.9939C0 32.1803 0.074079 32.3592 0.205941 32.4911C0.337802 32.6229 0.516645 32.697 0.703125 32.697H12.8159C13.2599 32.6975 13.6856 32.8741 13.9996 33.1881C14.3136 33.502 14.4902 33.9277 14.4907 34.3717V44.9621C14.4902 45.4061 14.3136 45.8318 13.9996 46.1458C13.6856 46.4598 13.2599 46.6364 12.8159 46.6369H0.703125C0.516645 46.6369 0.337802 46.7109 0.205941 46.8428C0.074079 46.9747 0 47.1535 0 47.34C0 47.5265 0.074079 47.7053 0.205941 47.8372C0.337802 47.969 0.516645 48.0431 0.703125 48.0431H12.8159C13.6196 48.0435 14.3913 47.7288 14.9655 47.1665C16.8799 47.6458 19.6025 48.1364 23.6536 48.1363C26.2412 48.1225 28.8257 47.9553 31.3935 47.6358C32.0588 47.555 32.6715 47.2334 33.1159 46.7316C33.5603 46.2299 33.8055 45.5828 33.8053 44.9126V44.6576C33.8058 44.1264 33.6507 43.6067 33.3593 43.1625C33.9035 42.9639 34.3707 42.5981 34.6943 42.1177C35.0178 41.6373 35.181 41.0668 35.1605 40.4879C35.1436 39.9905 34.9895 39.5075 34.7152 39.0922C35.1607 38.9333 35.557 38.6609 35.8649 38.3018C36.1728 37.9427 36.3817 37.5095 36.4708 37.045C36.56 36.5804 36.5263 36.1007 36.3732 35.6531C36.2201 35.2056 35.9528 34.8058 35.5977 34.4932C35.6505 34.4466 35.7016 34.3979 35.7507 34.3474C36.0074 34.0831 36.2076 33.7695 36.3393 33.4255C36.4711 33.0815 36.5316 32.7143 36.5171 32.3463ZM30.3881 35.1843H33.7322C34.4681 35.1843 35.0871 35.7592 35.1117 36.4665C35.1185 36.6455 35.089 36.824 35.0252 36.9913C34.9613 37.1587 34.8644 37.3115 34.7402 37.4405C34.6159 37.5695 34.4669 37.6722 34.3021 37.7423C34.1373 37.8124 33.9601 37.8486 33.7809 37.8486H30.3881C30.2016 37.8486 30.0228 37.9227 29.8909 38.0546C29.7591 38.1864 29.685 38.3653 29.685 38.5518C29.685 38.7383 29.7591 38.9171 29.8909 39.049C30.0228 39.1808 30.2016 39.2549 30.3881 39.2549H32.3747C33.1106 39.2549 33.7298 39.8305 33.7552 40.5381C33.7618 40.717 33.7322 40.8955 33.6683 41.0629C33.6043 41.2302 33.5073 41.3829 33.383 41.5118C33.2586 41.6407 33.1096 41.7433 32.9447 41.8133C32.7799 41.8833 32.6026 41.9194 32.4234 41.9193H30.3881C30.2016 41.9193 30.0228 41.9934 29.8909 42.1252C29.7591 42.2571 29.685 42.4359 29.685 42.6224C29.685 42.8089 29.7591 42.9877 29.8909 43.1196C30.0228 43.2514 30.2016 43.3255 30.3881 43.3255H31.0669C31.4201 43.3259 31.7587 43.4664 32.0084 43.7161C32.2582 43.9659 32.3987 44.3045 32.3991 44.6577V44.9127C32.3995 45.2389 32.2804 45.554 32.0644 45.7985C31.8483 46.0429 31.5502 46.1998 31.2264 46.2395C27.2058 46.7189 21.3158 47.1863 15.7485 45.9057C15.8469 45.6009 15.897 45.2825 15.8969 44.9621V34.3717C15.8969 34.2875 15.8926 34.2043 15.8859 34.1217L16.0244 33.574C16.036 33.528 16.061 33.4865 16.0961 33.4547C17.4679 32.2129 18.7736 30.9002 20.008 29.5219C21.5321 27.8176 22.9446 26.0167 24.2365 24.1303C24.3749 23.9315 24.5737 23.7827 24.8034 23.7059C25.0331 23.6291 25.2814 23.6285 25.5115 23.7041L25.5499 23.7159C25.6983 23.7621 25.8357 23.8382 25.9537 23.9394C26.0716 24.0406 26.1677 24.1648 26.236 24.3045C26.3043 24.4441 26.3433 24.5962 26.3507 24.7515C26.3581 24.9068 26.3337 25.0619 26.2791 25.2074L24.6544 29.5282C24.5877 29.7056 24.5651 29.8964 24.5883 30.0844C24.6116 30.2724 24.68 30.452 24.7879 30.6077C24.8957 30.7635 25.0397 30.8907 25.2074 30.9787C25.3752 31.0666 25.5618 31.1126 25.7512 31.1126H33.7322C34.4681 31.1126 35.087 31.6881 35.1117 32.3959C35.1184 32.5748 35.0889 32.7533 35.025 32.9206C34.9611 33.0879 34.8642 33.2406 34.74 33.3697C34.6158 33.4987 34.4668 33.6013 34.302 33.6715C34.1373 33.7416 33.96 33.7778 33.7809 33.7779H30.3881C30.2016 33.7779 30.0228 33.852 29.8909 33.9839C29.7591 34.1157 29.685 34.2946 29.685 34.4811C29.685 34.6675 29.7591 34.8464 29.8909 34.9782C30.0228 35.1101 30.2016 35.1842 30.3881 35.1842V35.1843Z" fill="#272A33"/>
</g>
<defs>
<clipPath id="clip0_402_841">
<rect width="48" height="48" fill="white" transform="translate(0 0.142456)"/>
</clipPath>
</defs>
</svg>
