<svg width="25" height="23" viewBox="0 0 25 23" fill="none" xmlns="http://www.w3.org/2000/svg">
<path d="M21.7451 17.9838C22.5107 18.3588 23.1436 18.8861 23.6436 19.5658C24.1436 20.2455 24.46 21.0111 24.5928 21.8627H23.3037C23.2178 21.4174 23.0576 21.0033 22.8232 20.6205C22.5889 20.2377 22.3037 19.9095 21.9678 19.6361C21.6318 19.3627 21.2529 19.1439 20.8311 18.9799C20.4092 18.8158 19.9717 18.7377 19.5186 18.7455C19.0576 18.7455 18.6201 18.8236 18.2061 18.9799C17.792 19.1361 17.4131 19.351 17.0693 19.6244C16.7256 19.8978 16.4404 20.2299 16.2139 20.6205C15.9873 21.0111 15.8271 21.4252 15.7334 21.8627H14.4443C14.5693 21.0189 14.8818 20.2572 15.3818 19.5775C15.8818 18.8978 16.5186 18.3666 17.292 17.9838C16.8467 17.6322 16.5029 17.2064 16.2607 16.7064C16.0186 16.2064 15.8936 15.6752 15.8857 15.1127C15.8857 14.7611 15.9326 14.4213 16.0264 14.0931C16.1201 13.765 16.2607 13.4564 16.4482 13.1674C16.6357 12.8783 16.8584 12.6205 17.1162 12.3939C17.374 12.1674 17.6631 11.976 17.9834 11.8197C17.7725 11.515 17.5303 11.2455 17.2568 11.0111C16.9834 10.7767 16.6865 10.5697 16.3662 10.39C16.0459 10.2103 15.71 10.0814 15.3584 10.0033C15.0068 9.92517 14.6436 9.8783 14.2686 9.86267C13.6436 9.86267 13.0459 9.98376 12.4756 10.226C11.9053 10.4681 11.4092 10.8236 10.9873 11.2924C11.1748 11.8002 11.2686 12.3236 11.2686 12.8627C11.2686 13.5814 11.1084 14.2572 10.7881 14.89C10.4678 15.5228 10.0186 16.0541 9.44043 16.4838C9.94824 16.7416 10.4053 17.058 10.8115 17.433C11.2178 17.808 11.5693 18.2299 11.8662 18.6986C12.1631 19.1674 12.3857 19.6674 12.5342 20.1986C12.6826 20.7299 12.7607 21.2845 12.7686 21.8627H11.2686C11.2686 21.2455 11.1514 20.6635 10.917 20.1166C10.6826 19.5697 10.3623 19.0931 9.95605 18.6869C9.5498 18.2806 9.06934 17.9564 8.51465 17.7142C7.95996 17.472 7.37793 17.3549 6.76855 17.3627C6.14355 17.3627 5.56152 17.4799 5.02246 17.7142C4.4834 17.9486 4.00684 18.2689 3.59277 18.6752C3.17871 19.0814 2.85449 19.5619 2.62012 20.1166C2.38574 20.6713 2.26855 21.2533 2.26855 21.8627H0.768555C0.768555 21.2924 0.84668 20.7416 1.00293 20.2103C1.15918 19.6791 1.38184 19.1791 1.6709 18.7103C1.95996 18.2416 2.30762 17.8197 2.71387 17.4447C3.12012 17.0697 3.58105 16.7494 4.09668 16.4838C3.51855 16.0541 3.06934 15.5228 2.74902 14.89C2.42871 14.2572 2.26855 13.5814 2.26855 12.8627C2.26855 12.2455 2.38574 11.6635 2.62012 11.1166C2.85449 10.5697 3.1748 10.0931 3.58105 9.68689C3.9873 9.28064 4.46387 8.95642 5.01074 8.71423C5.55762 8.47205 6.14355 8.35486 6.76855 8.36267C7.43262 8.36267 8.06152 8.5033 8.65527 8.78455C9.24902 9.0658 9.76465 9.45642 10.2021 9.95642C10.4053 9.76111 10.624 9.58533 10.8584 9.42908C11.0928 9.27283 11.3389 9.12439 11.5967 8.98376C11.0186 8.55408 10.5693 8.02283 10.249 7.39001C9.92871 6.7572 9.76855 6.08142 9.76855 5.36267C9.76855 4.74548 9.88574 4.16345 10.1201 3.61658C10.3545 3.0697 10.6748 2.59314 11.0811 2.18689C11.4873 1.78064 11.9639 1.45642 12.5107 1.21423C13.0576 0.972046 13.6436 0.854858 14.2686 0.862671C14.8857 0.862671 15.4678 0.979858 16.0146 1.21423C16.5615 1.44861 17.0381 1.76892 17.4443 2.17517C17.8506 2.58142 18.1748 3.06189 18.417 3.61658C18.6592 4.17126 18.7764 4.7533 18.7686 5.36267C18.7686 6.08142 18.6084 6.7572 18.2881 7.39001C17.9678 8.02283 17.5186 8.55408 16.9404 8.98376C17.4873 9.27283 17.9795 9.62439 18.417 10.0385C18.8545 10.4525 19.2256 10.933 19.5303 11.4799C20.0303 11.4799 20.499 11.5736 20.9365 11.7611C21.374 11.9486 21.7607 12.2103 22.0967 12.5463C22.4326 12.8822 22.6904 13.265 22.8701 13.6947C23.0498 14.1244 23.1436 14.597 23.1514 15.1127C23.1514 15.6752 23.0303 16.2064 22.7881 16.7064C22.5459 17.2064 22.1982 17.6322 21.7451 17.9838ZM6.76855 15.8627C7.18262 15.8627 7.56934 15.7845 7.92871 15.6283C8.28809 15.472 8.6084 15.2572 8.88965 14.9838C9.1709 14.7103 9.38574 14.3939 9.53418 14.0345C9.68262 13.6752 9.76074 13.2845 9.76855 12.8627C9.76855 12.4486 9.69043 12.0619 9.53418 11.7025C9.37793 11.3431 9.16309 11.0228 8.88965 10.7416C8.61621 10.4603 8.2998 10.2455 7.94043 10.097C7.58105 9.94861 7.19043 9.87048 6.76855 9.86267C6.35449 9.86267 5.96777 9.9408 5.6084 10.097C5.24902 10.2533 4.92871 10.4681 4.64746 10.7416C4.36621 11.015 4.15137 11.3314 4.00293 11.6908C3.85449 12.0502 3.77637 12.4408 3.76855 12.8627C3.76855 13.2767 3.84668 13.6635 4.00293 14.0228C4.15918 14.3822 4.37402 14.7025 4.64746 14.9838C4.9209 15.265 5.2373 15.4799 5.59668 15.6283C5.95605 15.7767 6.34668 15.8549 6.76855 15.8627ZM11.2686 5.36267C11.2686 5.77673 11.3467 6.16345 11.5029 6.52283C11.6592 6.8822 11.874 7.20251 12.1475 7.48376C12.4209 7.76501 12.7373 7.97986 13.0967 8.1283C13.4561 8.27673 13.8467 8.35486 14.2686 8.36267C14.6826 8.36267 15.0693 8.28455 15.4287 8.1283C15.7881 7.97205 16.1084 7.7572 16.3896 7.48376C16.6709 7.21033 16.8857 6.89392 17.0342 6.53455C17.1826 6.17517 17.2607 5.78455 17.2686 5.36267C17.2686 4.94861 17.1904 4.56189 17.0342 4.20251C16.8779 3.84314 16.6631 3.52283 16.3896 3.24158C16.1162 2.96033 15.7998 2.74548 15.4404 2.59705C15.0811 2.44861 14.6904 2.37048 14.2686 2.36267C13.8545 2.36267 13.4678 2.4408 13.1084 2.59705C12.749 2.7533 12.4287 2.96814 12.1475 3.24158C11.8662 3.51501 11.6514 3.83142 11.5029 4.1908C11.3545 4.55017 11.2764 4.9408 11.2686 5.36267ZM19.5186 12.7455C19.1904 12.7455 18.8857 12.808 18.6045 12.933C18.3232 13.058 18.0732 13.226 17.8545 13.4369C17.6357 13.6478 17.4639 13.8978 17.3389 14.1869C17.2139 14.476 17.1514 14.7845 17.1514 15.1127C17.1514 15.4408 17.2139 15.7455 17.3389 16.0267C17.4639 16.308 17.6318 16.558 17.8428 16.7767C18.0537 16.9955 18.3037 17.1674 18.5928 17.2924C18.8818 17.4174 19.1904 17.4799 19.5186 17.4799C19.8467 17.4799 20.1514 17.4174 20.4326 17.2924C20.7139 17.1674 20.9639 16.9994 21.1826 16.7885C21.4014 16.5775 21.5732 16.3275 21.6982 16.0385C21.8232 15.7494 21.8857 15.4408 21.8857 15.1127C21.8857 14.7845 21.8232 14.4799 21.6982 14.1986C21.5732 13.9174 21.4053 13.6674 21.1943 13.4486C20.9834 13.2299 20.7334 13.058 20.4443 12.933C20.1553 12.808 19.8467 12.7455 19.5186 12.7455Z" fill="#AB348E" stroke="#AB348E" stroke-width="0.433786"/>
</svg>
