<svg width="23" height="24" viewBox="0 0 23 24" fill="none" xmlns="http://www.w3.org/2000/svg">
<path fill-rule="evenodd" clip-rule="evenodd" d="M9.10555 15.207C12.5033 15.207 15.4074 15.766 15.4074 17.999C15.4074 20.232 12.5227 20.807 9.10555 20.807C5.70687 20.807 2.80371 20.253 2.80371 18.019C2.80371 15.785 5.68753 15.207 9.10555 15.207Z" stroke="#AB348E" stroke-width="2.16893" stroke-linecap="round" stroke-linejoin="round"/>
<path fill-rule="evenodd" clip-rule="evenodd" d="M9.10517 12.02C6.87438 12.02 5.06543 10.057 5.06543 7.635C5.06543 5.213 6.87438 3.25 9.10517 3.25C11.335 3.25 13.144 5.213 13.144 7.635C13.1523 10.048 11.3562 12.011 9.13372 12.02H9.10517Z" stroke="#AB348E" stroke-width="2.16893" stroke-linecap="round" stroke-linejoin="round"/>
<path d="M15.4541 10.8823C16.9287 10.6573 18.0644 9.28326 18.0671 7.62026C18.0671 5.98126 16.9665 4.62126 15.5232 4.36426" stroke="#AB348E" stroke-width="2.16893" stroke-linecap="round" stroke-linejoin="round"/>
<path d="M17.3994 14.7324C18.828 14.9634 19.8255 15.5074 19.8255 16.6274C19.8255 17.3984 19.3557 17.8984 18.5968 18.2114" stroke="#AB348E" stroke-width="2.16893" stroke-linecap="round" stroke-linejoin="round"/>
</svg>
