<svg width="18" height="19" viewBox="0 0 18 19" fill="none" xmlns="http://www.w3.org/2000/svg">
<path fill-rule="evenodd" clip-rule="evenodd" d="M0.169342 9.2683C0.169342 6.92627 1.09971 4.68015 2.75578 3.02408C4.41186 1.36801 6.65797 0.437637 9.00001 0.437637C11.342 0.437637 13.5882 1.36801 15.2442 3.02408C16.9003 4.68015 17.8307 6.92627 17.8307 9.2683C17.8307 11.6103 16.9003 13.8565 15.2442 15.5125C13.5882 17.1686 11.342 18.099 9.00001 18.099C6.65797 18.099 4.41186 17.1686 2.75578 15.5125C1.09971 13.8565 0.169342 11.6103 0.169342 9.2683ZM9.00001 1.7043C6.99391 1.7043 5.06998 2.50122 3.65145 3.91975C2.23293 5.33827 1.43601 7.26221 1.43601 9.2683C1.43601 11.2744 2.23293 13.1983 3.65145 14.6169C5.06998 16.0354 6.99391 16.8323 9.00001 16.8323C11.0061 16.8323 12.93 16.0354 14.3486 14.6169C15.7671 13.1983 16.564 11.2744 16.564 9.2683C16.564 7.26221 15.7671 5.33827 14.3486 3.91975C12.93 2.50122 11.0061 1.7043 9.00001 1.7043ZM12.1387 6.13097C12.2637 6.25599 12.3339 6.42553 12.3339 6.6023C12.3339 6.77908 12.2637 6.94862 12.1387 7.07364L9.94268 9.2683L12.1387 11.463C12.2639 11.5882 12.3342 11.7579 12.3342 11.935C12.3342 12.112 12.2639 12.2818 12.1387 12.407C12.0135 12.5322 11.8437 12.6025 11.6667 12.6025C11.4896 12.6025 11.3199 12.5322 11.1947 12.407L9.00001 10.211L6.80534 12.407C6.74336 12.469 6.66977 12.5181 6.58879 12.5517C6.5078 12.5852 6.421 12.6025 6.33334 12.6025C6.24568 12.6025 6.15888 12.5852 6.0779 12.5517C5.99691 12.5181 5.92333 12.469 5.86134 12.407C5.79936 12.345 5.75019 12.2714 5.71664 12.1904C5.6831 12.1094 5.66583 12.0226 5.66583 11.935C5.66583 11.8473 5.6831 11.7605 5.71664 11.6795C5.75019 11.5985 5.79936 11.525 5.86134 11.463L8.05734 9.2683L5.86134 7.07364C5.73616 6.94846 5.66583 6.77867 5.66583 6.60164C5.66583 6.4246 5.73616 6.25482 5.86134 6.12964C5.98652 6.00446 6.15631 5.93413 6.33334 5.93413C6.51038 5.93413 6.68016 6.00446 6.80534 6.12964L9.00001 8.32564L11.1947 6.12964C11.2566 6.06755 11.3302 6.0183 11.4112 5.98469C11.4922 5.95108 11.579 5.93378 11.6667 5.93378C11.7544 5.93378 11.8412 5.95108 11.9222 5.98469C12.0032 6.0183 12.0767 6.06889 12.1387 6.13097Z" fill="#EB0000"/>
</svg>
